<?xml version="1.0" encoding="utf-8"?>
<!-- Generator: Adobe Illustrator 16.0.0, SVG Export Plug-In . SVG Version: 6.00 Build 0)  -->
<!DOCTYPE svg PUBLIC "-//W3C//DTD SVG 1.1//EN" "http://www.w3.org/Graphics/SVG/1.1/DTD/svg11.dtd">
<svg version="1.1" id="Layer_1" xmlns="http://www.w3.org/2000/svg" xmlns:xlink="http://www.w3.org/1999/xlink" x="0px" y="0px"
	 width="20px" height="20px" viewBox="0 0 20 20" enable-background="new 0 0 20 20" xml:space="preserve">
<g>
	<g>
		<path fill="#FFFFFF" d="M2,19.5c-0.827,0-1.5-0.674-1.5-1.5V2c0-0.828,0.673-1.5,1.5-1.5h16c0.826,0,1.5,0.672,1.5,1.5v16
			c0,0.826-0.674,1.5-1.5,1.5H2z"/>
		<path fill="#E6E6E6" d="M18,1c0.552,0,1,0.447,1,1v16c0,0.552-0.448,1-1,1H2c-0.553,0-1-0.448-1-1V2c0-0.553,0.447-1,1-1H18 M18,0
			H2C0.896,0,0,0.896,0,2v16c0,1.104,0.896,2,2,2h16c1.104,0,2-0.896,2-2V2C20,0.895,19.104,0,18,0L18,0z"/>
	</g>
</g>
</svg>
