<?xml version="1.0" encoding="utf-8"?>
<!-- Generator: Adobe Illustrator 16.0.0, SVG Export Plug-In . SVG Version: 6.00 Build 0)  -->
<!DOCTYPE svg PUBLIC "-//W3C//DTD SVG 1.1//EN" "http://www.w3.org/Graphics/SVG/1.1/DTD/svg11.dtd">
<svg version="1.1" id="Layer_1" xmlns="http://www.w3.org/2000/svg" xmlns:xlink="http://www.w3.org/1999/xlink" x="0px" y="0px"
	 width="20px" height="20px" viewBox="279.115 116.437 20 20" enable-background="new 279.115 116.437 20 20" xml:space="preserve">
<g>
	<g>
		<path fill-rule="evenodd" clip-rule="evenodd" fill="#FFFFFF" d="M281.115,135.937c-0.827,0-1.5-0.673-1.5-1.5v-16
			c0-0.827,0.673-1.5,1.5-1.5h16c0.827,0,1.5,0.673,1.5,1.5v16c0,0.827-0.673,1.5-1.5,1.5H281.115z"/>
		<path fill="#E6E6E6" d="M297.115,117.437c0.552,0,1,0.448,1,1v16c0,0.552-0.448,1-1,1h-16c-0.552,0-1-0.448-1-1v-16
			c0-0.552,0.448-1,1-1H297.115 M297.115,116.437h-16c-1.104,0-2,0.896-2,2v16c0,1.104,0.896,2,2,2h16c1.104,0,2-0.896,2-2v-16
			C299.115,117.332,298.219,116.437,297.115,116.437L297.115,116.437z"/>
	</g>
</g>
<g>
	<path fill-rule="evenodd" clip-rule="evenodd" fill="#39B1B5" d="M284.604,126.437l0.645-0.701l3.222,3.505l-0.645,0.7
		L284.604,126.437z"/>
	<path fill-rule="evenodd" clip-rule="evenodd" fill="#39B1B5" d="M292.981,122.933l0.645,0.7l-5.8,6.308l-0.645-0.7
		L292.981,122.933z"/>
</g>
</svg>
