<?xml version="1.0" encoding="utf-8"?>
<!-- Generator: Adobe Illustrator 19.1.0, SVG Export Plug-In . SVG Version: 6.00 Build 0)  -->
<svg version="1.1" id="Layer_1" xmlns="http://www.w3.org/2000/svg" xmlns:xlink="http://www.w3.org/1999/xlink" x="0px" y="0px"
	 viewBox="-294 385.9 23 22.1" style="enable-background:new -294 385.9 23 22.1;" xml:space="preserve">
<g>
	<path d="M-271,394.5c0-0.4-0.3-0.7-0.6-0.7l-7.1-1l-3.2-6.4c-0.2-0.5-1.1-0.5-1.3,0l-3.2,6.4l-7.1,1c-0.4,0.1-0.6,0.4-0.6,0.7
		c0,0.2,0.1,0.4,0.2,0.5l5.1,5l-1.2,7.1c0,0.1,0,0.1,0,0.2c0,0.4,0.3,0.7,0.7,0.7c0.1,0,0.2,0,0.3-0.1l6.3-3.3l6.3,3.3
		c0.1,0.1,0.2,0.1,0.3,0.1c0.2,0,0.4-0.1,0.5-0.2c0.1-0.1,0.2-0.3,0.2-0.5c0,0,0-0.1,0-0.1l-1.2-7.1l5.1-5
		C-271.1,394.9-271,394.7-271,394.5z M-287.1,399.5l-4.6-4.5l6.4-0.9l2.8-5.8l2.8,5.8l6.4,0.9l-4.6,4.5l1.1,6.4l-5.7-3l-5.7,3
		L-287.1,399.5z"/>
</g>
</svg>
