<?xml version="1.0" encoding="utf-8"?>
<!-- Generator: Adobe Illustrator 16.0.0, SVG Export Plug-In . SVG Version: 6.00 Build 0)  -->
<!DOCTYPE svg PUBLIC "-//W3C//DTD SVG 1.1//EN" "http://www.w3.org/Graphics/SVG/1.1/DTD/svg11.dtd">
<svg version="1.1" id="Layer_1" xmlns="http://www.w3.org/2000/svg" xmlns:xlink="http://www.w3.org/1999/xlink" x="0px" y="0px"
	 width="23px" height="22.054px" viewBox="5.984 -0.414 23 22.054" enable-background="new 5.984 -0.414 23 22.054"
	 xml:space="preserve">
<path d="M28.984,8.16c0-0.361-0.258-0.667-0.619-0.727l-7.067-1.035L18.14-0.042c-0.249-0.491-1.058-0.499-1.31-0.008l-3.16,6.447
	L6.599,7.433C6.243,7.493,5.984,7.798,5.984,8.16c0,0.205,0.082,0.395,0.226,0.532l5.104,5.01l-1.201,7.055
	c-0.012,0.059-0.016,0.105-0.016,0.152c0,0.396,0.342,0.732,0.746,0.732c0.115,0,0.229-0.029,0.327-0.082l6.313-3.342l6.309,3.34
	c0.103,0.055,0.218,0.084,0.335,0.084c0.196,0,0.39-0.082,0.531-0.225c0.137-0.137,0.212-0.318,0.212-0.508
	c0-0.049-0.005-0.098-0.013-0.135l-1.204-7.072l5.096-5.002C28.901,8.557,28.984,8.366,28.984,8.16z"/>
</svg>
