<?xml version="1.0" encoding="utf-8"?>
<!-- Generator: Adobe Illustrator 19.1.0, SVG Export Plug-In . SVG Version: 6.00 Build 0)  -->
<svg version="1.1" id="Layer_1" xmlns="http://www.w3.org/2000/svg" xmlns:xlink="http://www.w3.org/1999/xlink" x="0px" y="0px"
	 viewBox="-297 388 15 18" style="enable-background:new -297 388 15 18;" xml:space="preserve">
<style type="text/css">
	.st0{fill:#FF0018;}
</style>
<g>
	<g>
		<path class="st0" d="M-284.4,394.9v-2.1c0-2.7-2.3-4.8-5.1-4.8c-2.8,0-5.1,2.2-5.1,4.8v2.1c-1.3,0.1-2.4,1.1-2.4,2.4v6.3
			c0,1.3,1.1,2.4,2.5,2.4h9.9c0.7,0,1.3-0.2,1.8-0.7c0.5-0.5,0.7-1.1,0.7-1.7v-6.3C-282,396-283.1,395-284.4,394.9z M-293.4,392.8
			c0-2.1,1.8-3.7,3.9-3.7c2.2,0,3.9,1.7,3.9,3.7v2.1h-7.9V392.8z M-284.5,404.9h-9.9c-0.8,0-1.4-0.6-1.4-1.3v-6.3
			c0-0.7,0.6-1.3,1.4-1.3h9.9c0.8,0,1.4,0.6,1.4,1.3l0,6.3C-283.2,404.3-283.8,404.9-284.5,404.9z M-289.5,398.4
			c-0.8,0-1.5,0.6-1.5,1.4c0,0.6,0.4,1.1,1,1.3v2.3h1.1v-2.3c0.6-0.2,1-0.7,1-1.3C-288,399-288.7,398.4-289.5,398.4z"/>
	</g>
</g>
</svg>
