<?xml version="1.0" encoding="utf-8"?>
<!-- Generator: Adobe Illustrator 16.0.0, SVG Export Plug-In . SVG Version: 6.00 Build 0)  -->
<!DOCTYPE svg PUBLIC "-//W3C//DTD SVG 1.1//EN" "http://www.w3.org/Graphics/SVG/1.1/DTD/svg11.dtd">
<svg version="1.1" id="Layer_1" xmlns="http://www.w3.org/2000/svg" xmlns:xlink="http://www.w3.org/1999/xlink" x="0px" y="0px"
	 width="173.984px" height="173.984px" viewBox="50.076 -24.587 173.984 173.984"
	 enable-background="new 50.076 -24.587 173.984 173.984" xml:space="preserve">
<g>
	<path fill="#FA6871" d="M173.101-24.587h-72.066L50.076,26.372v72.066l50.959,50.959h72.066l50.959-50.959V26.372L173.101-24.587z
		 M170.139,87.801c0.997,0.984,1.58,2.387,1.58,3.83c0,1.446-0.585,2.852-1.604,3.854c-2.09,2.077-5.519,2.08-7.626-0.01
		l-25.426-25.413l-25.412,25.399c-1.012,1.021-2.377,1.59-3.831,1.59c-1.442,0-2.802-0.563-3.827-1.586
		c-1.003-0.994-1.582-2.395-1.582-3.834c0-1.449,0.558-2.809,1.57-3.824l25.418-25.404l-25.41-25.396
		c-1.02-1.023-1.576-2.382-1.576-3.832c0,0,0,0,0-0.001c0-1.433,0.572-2.829,1.572-3.829c2.106-2.105,5.537-2.112,7.65-0.02
		l25.43,25.414l25.41-25.397c2.111-2.101,5.54-2.104,7.649-0.017c1.038,1.037,1.601,2.399,1.601,3.849
		c0,1.438-0.557,2.792-1.569,3.815l-25.428,25.414L170.139,87.801z"/>
</g>
</svg>
