<?xml version="1.0" encoding="utf-8"?>
<!-- Generator: Adobe Illustrator 19.1.0, SVG Export Plug-In . SVG Version: 6.00 Build 0)  -->
<svg version="1.1" id="Layer_1" xmlns="http://www.w3.org/2000/svg" xmlns:xlink="http://www.w3.org/1999/xlink" x="0px" y="0px"
	 viewBox="0 0 19.002 10.997" style="enable-background:new 0 0 19.002 10.997;" xml:space="preserve">
<style type="text/css">
	.st0{fill:#767D86;}
</style>
<g>
	<path class="st0" d="M3.168,4.341C3.472,4.045,3.895,3.857,4.36,3.857c0.93-0.001,1.685,0.737,1.685,1.641
		c0,0.906-0.755,1.641-1.685,1.641C3.431,7.141,2.675,6.403,2.675,5.498C2.675,5.045,2.863,4.638,3.168,4.341z M1.941,0.174
		c-0.11,0.107-0.179,0.254-0.179,0.418v1.486C0.69,2.854,0,4.098,0,5.498c0,1.4,0.69,2.645,1.762,3.419v1.486
		c0,0.329,0.271,0.593,0.608,0.593h16.022c0.338,0,0.608-0.263,0.608-0.593V0.593C19.002,0.264,18.731,0,18.393,0H2.371
		C2.202,0,2.051,0.067,1.941,0.174z"/>
</g>
</svg>
