<?xml version="1.0" encoding="utf-8"?>
<!-- Generator: Adobe Illustrator 16.0.0, SVG Export Plug-In . SVG Version: 6.00 Build 0)  -->
<!DOCTYPE svg PUBLIC "-//W3C//DTD SVG 1.1//EN" "http://www.w3.org/Graphics/SVG/1.1/DTD/svg11.dtd">
<svg version="1.1" id="Layer_1" xmlns="http://www.w3.org/2000/svg" xmlns:xlink="http://www.w3.org/1999/xlink" x="0px" y="0px"
	 width="19.98px" height="19.987px" viewBox="269.086 115.419 19.98 19.987" enable-background="new 269.086 115.419 19.98 19.987"
	 xml:space="preserve">
<path d="M288.921,134.56l-5.988-5.992l0.043-0.051c1.246-1.438,1.933-3.277,1.933-5.183c0-4.365-3.549-7.915-7.911-7.915
	c-2.113,0-4.1,0.823-5.594,2.317c-1.495,1.496-2.317,3.483-2.317,5.598c0,4.365,3.549,7.914,7.911,7.914
	c1.903,0,3.744-0.686,5.18-1.932l0.052-0.045l5.988,5.994c0.091,0.09,0.22,0.141,0.352,0.141c0.001,0,0.001,0,0.001,0
	c0.133,0,0.262-0.051,0.352-0.142C289.115,135.07,289.115,134.754,288.921,134.56z M274.305,129.709
	c-0.822-0.348-1.562-0.846-2.199-1.482c-0.635-0.636-1.134-1.376-1.482-2.201c-0.36-0.852-0.543-1.758-0.543-2.691
	s0.183-1.84,0.543-2.693c0.349-0.822,0.847-1.562,1.482-2.199c0.636-0.636,1.376-1.135,2.199-1.482
	c0.835-0.354,1.766-0.541,2.691-0.541c0.925,0,1.855,0.188,2.69,0.541c0.824,0.348,1.564,0.847,2.199,1.482
	c0.636,0.637,1.134,1.377,1.482,2.199c0.36,0.854,0.543,1.76,0.543,2.693c0,0.933-0.183,1.839-0.543,2.692
	c-0.349,0.824-0.847,1.564-1.482,2.2c-0.637,0.636-1.376,1.135-2.199,1.482C277.982,130.431,276.012,130.431,274.305,129.709z"/>
</svg>
