<?xml version="1.0" encoding="utf-8"?>
<!-- Generator: Adobe Illustrator 16.0.0, SVG Export Plug-In . SVG Version: 6.00 Build 0)  -->
<!DOCTYPE svg PUBLIC "-//W3C//DTD SVG 1.1//EN" "http://www.w3.org/Graphics/SVG/1.1/DTD/svg11.dtd">
<svg version="1.1" id="Layer_1" xmlns="http://www.w3.org/2000/svg" xmlns:xlink="http://www.w3.org/1999/xlink" x="0px" y="0px"
	 width="19.979px" height="19.988px" viewBox="260.596 119.425 19.979 19.988"
	 enable-background="new 260.596 119.425 19.979 19.988" xml:space="preserve">
<g>
	<path d="M278.739,134.376l-0.07-0.021c-1.147-0.311-1.984-0.605-2.485-0.799c-1.819-0.699-2.22-1.182-2.308-1.357
		c-0.146-0.29-0.053-0.776,0.248-1.318c0.149-0.205,0.281-0.397,0.402-0.592l0.086-0.141c0.385-0.642,0.695-1.338,0.921-2.069
		c0.272-0.878,0.425-1.817,0.455-2.791c0.024-0.805-0.111-1.588-0.403-2.33c-0.279-0.709-0.688-1.345-1.215-1.89
		c-1.021-1.055-2.363-1.639-3.779-1.643c-1.422,0.004-2.768,0.588-3.79,1.644c-0.526,0.544-0.935,1.18-1.214,1.889
		c-0.292,0.742-0.428,1.525-0.403,2.33c0.03,0.974,0.183,1.913,0.455,2.791c0.226,0.731,0.536,1.428,0.922,2.069l0.086,0.143
		c0.123,0.195,0.253,0.387,0.378,0.553c0.324,0.579,0.42,1.061,0.271,1.355c-0.088,0.176-0.49,0.658-2.309,1.358
		c-0.504,0.193-1.342,0.488-2.477,0.797l-0.084,0.023c-1.094,0.367-1.83,1.392-1.83,2.55v2.486h19.979v-2.486
		C280.575,135.769,279.839,134.744,278.739,134.376z M268.177,132.643c0.309-0.614,0.205-1.408-0.307-2.308
		c-0.139-0.19-0.251-0.354-0.355-0.518l-0.033-0.054c-0.82-1.312-1.262-2.829-1.312-4.507c-0.02-0.67,0.093-1.322,0.335-1.938
		c0.231-0.588,0.569-1.114,1.005-1.564c0.835-0.863,1.926-1.34,3.072-1.343v-0.143l0.004,0.143c1.15,0.003,2.243,0.479,3.078,1.343
		c0.436,0.45,0.773,0.977,1.005,1.564c0.242,0.616,0.354,1.268,0.334,1.938c-0.05,1.677-0.491,3.193-1.312,4.508l-0.031,0.049
		c-0.106,0.167-0.218,0.329-0.344,0.5c-0.52,0.908-0.629,1.714-0.32,2.329c0.183,0.363,0.564,0.711,1.166,1.062
		c0.439,0.255,1.001,0.515,1.668,0.771c0.529,0.203,1.405,0.512,2.562,0.825c0.728,0.247,1.197,0.885,1.197,1.625v1.499h-18.006
		v-1.499c0-0.729,0.461-1.375,1.138-1.607c0.956-0.26,1.862-0.552,2.621-0.843c0.668-0.257,1.229-0.516,1.669-0.772
		C267.612,133.354,267.994,133.006,268.177,132.643z"/>
</g>
</svg>
