<?xml version="1.0" encoding="utf-8"?>
<!-- Generator: Adobe Illustrator 16.0.0, SVG Export Plug-In . SVG Version: 6.00 Build 0)  -->
<!DOCTYPE svg PUBLIC "-//W3C//DTD SVG 1.1//EN" "http://www.w3.org/Graphics/SVG/1.1/DTD/svg11.dtd">
<svg version="1.1" id="Layer_1" xmlns="http://www.w3.org/2000/svg" xmlns:xlink="http://www.w3.org/1999/xlink" x="0px" y="0px"
	 width="22.122px" height="24px" viewBox="6.37 -1.819 22.122 24" enable-background="new 6.37 -1.819 22.122 24"
	 xml:space="preserve">
<path d="M6.787,22.181c-0.23,0-0.417-0.188-0.417-0.417c0-5.009,3.373-9.406,8.203-10.693l0.469-0.125l-0.414-0.254
	c-1.913-1.178-3.25-3.576-3.25-5.833c0-3.153,2.588-6.678,6.052-6.678s6.052,3.525,6.052,6.678c0,2.256-1.336,4.655-3.249,5.833
	l-0.414,0.254l0.469,0.125c4.83,1.287,8.203,5.685,8.203,10.693c0,0.229-0.188,0.417-0.418,0.417H6.787z M17.431,11.537
	c-5.395,0-9.872,4.212-10.195,9.588l-0.013,0.221h20.416l-0.013-0.221C27.303,15.749,22.826,11.537,17.431,11.537 M17.431-0.984
	c-2.463,0-5.217,2.499-5.217,5.843s2.754,5.843,5.217,5.843s5.217-2.499,5.217-5.843S19.894-0.984,17.431-0.984"/>
</svg>
