<?xml version="1.0" encoding="utf-8"?>
<!-- Generator: Adobe Illustrator 16.0.0, SVG Export Plug-In . SVG Version: 6.00 Build 0)  -->
<!DOCTYPE svg PUBLIC "-//W3C//DTD SVG 1.1//EN" "http://www.w3.org/Graphics/SVG/1.1/DTD/svg11.dtd">
<svg version="1.1" id="Layer_1" xmlns="http://www.w3.org/2000/svg" xmlns:xlink="http://www.w3.org/1999/xlink" x="0px" y="0px"
	 width="27px" height="20.983px" viewBox="49.575 28.412 27 20.983" enable-background="new 49.575 28.412 27 20.983"
	 xml:space="preserve">
<g>
	<path d="M60.589,45.236c-1.128,0-2.045,0.932-2.045,2.079c0,1.146,0.917,2.08,2.045,2.08c1.127,0,2.044-0.935,2.044-2.08
		C62.633,46.168,61.716,45.236,60.589,45.236z M60.589,48.418c-0.598,0-1.084-0.494-1.084-1.103s0.486-1.104,1.084-1.104
		c0.597,0,1.083,0.495,1.083,1.104S61.185,48.418,60.589,48.418z"/>
	<path d="M66.844,45.236c-1.127,0-2.044,0.932-2.044,2.079c0,1.146,0.917,2.08,2.044,2.08c1.129,0,2.045-0.935,2.045-2.08
		C68.889,46.168,67.973,45.236,66.844,45.236z M66.844,48.418c-0.598,0-1.084-0.494-1.084-1.103s0.486-1.104,1.084-1.104
		c0.599,0,1.085,0.495,1.085,1.104S67.443,48.418,66.844,48.418z"/>
	<path d="M71.306,42.071H57.06l-4.749-13.32c-0.068-0.203-0.252-0.337-0.457-0.337l-1.799-0.002c-0.265,0-0.48,0.222-0.48,0.492
		c0,0.268,0.216,0.486,0.48,0.486h1.462l4.749,13.316c0.067,0.192,0.249,0.323,0.451,0.323h14.589c0.26,0,0.472-0.216,0.472-0.479
		C71.778,42.288,71.566,42.071,71.306,42.071z"/>
	<path d="M76.115,28.414H55.188c-0.252,0.015-0.452,0.229-0.452,0.49c0.001,0.028,0.019,0.123,0.039,0.197l3.737,10.432
		c0.068,0.202,0.252,0.336,0.455,0.336h13.375c0.204,0,0.387-0.134,0.453-0.33l3.747-10.461c0.013-0.051,0.031-0.146,0.032-0.174
		C76.575,28.64,76.37,28.425,76.115,28.414z M72.007,38.89H59.304l-3.402-9.499h19.507L72.007,38.89z"/>
</g>
</svg>
