<?xml version="1.0" encoding="utf-8"?>
<!-- Generator: Adobe Illustrator 16.0.0, SVG Export Plug-In . SVG Version: 6.00 Build 0)  -->
<!DOCTYPE svg PUBLIC "-//W3C//DTD SVG 1.1//EN" "http://www.w3.org/Graphics/SVG/1.1/DTD/svg11.dtd">
<svg version="1.1" id="Layer_1" xmlns="http://www.w3.org/2000/svg" xmlns:xlink="http://www.w3.org/1999/xlink" x="0px" y="0px"
	 width="30px" height="21.14px" viewBox="4.074 27.404 30 21.14" enable-background="new 4.074 27.404 30 21.14"
	 xml:space="preserve">
<g>
	<path d="M15.442,42.182c-1.755,0-3.183,1.429-3.183,3.184c0,1.753,1.428,3.179,3.183,3.179c1.755,0,3.183-1.426,3.183-3.179
		C18.625,43.61,17.197,42.182,15.442,42.182z M15.442,47.602c-1.235,0-2.24-1.003-2.24-2.236c0-1.235,1.005-2.24,2.24-2.24
		c1.235,0,2.241,1.005,2.241,2.24C17.682,46.599,16.677,47.602,15.442,47.602z"/>
	<path d="M29.377,42.182c-0.85,0-1.649,0.332-2.25,0.933c-0.603,0.603-0.934,1.401-0.933,2.251c0,1.753,1.428,3.179,3.183,3.179
		s3.184-1.426,3.184-3.18C32.557,43.609,31.13,42.182,29.377,42.182z M29.377,47.602c-1.235,0-2.24-1.003-2.24-2.237
		c-0.001-0.597,0.232-1.159,0.656-1.583c0.423-0.423,0.986-0.656,1.584-0.656c1.234,0,2.239,1.005,2.241,2.24
		C31.618,46.599,30.612,47.602,29.377,47.602z"/>
	<path d="M30.863,39.649l3.212-9.177h-3.669c-0.261,0-0.471,0.211-0.471,0.471c0,0.261,0.21,0.472,0.471,0.472h2.341l-2.562,7.316
		l-16.321,0.624l-3.525-8.244l-2.981-3.707l-2.823,0.064c-0.26,0.005-0.466,0.221-0.46,0.481c0.006,0.26,0.215,0.472,0.482,0.46
		l2.361-0.054l2.582,3.187l3.754,8.779L30.863,39.649z"/>
</g>
</svg>
