<?xml version="1.0" encoding="utf-8"?>
<!-- Generator: Adobe Illustrator 16.0.0, SVG Export Plug-In . SVG Version: 6.00 Build 0)  -->
<!DOCTYPE svg PUBLIC "-//W3C//DTD SVG 1.1//EN" "http://www.w3.org/Graphics/SVG/1.1/DTD/svg11.dtd">
<svg version="1.1" id="Layer_1" xmlns="http://www.w3.org/2000/svg" xmlns:xlink="http://www.w3.org/1999/xlink" x="0px" y="0px"
	 width="21px" height="21px" viewBox="261.096 111.425 21 21" enable-background="new 261.096 111.425 21 21" xml:space="preserve">
<g>
	<path d="M271.596,111.425c-5.799,0-10.5,4.701-10.5,10.5s4.701,10.5,10.5,10.5s10.5-4.701,10.5-10.5
		S277.395,111.425,271.596,111.425z M271.596,131.375c-5.211,0-9.45-4.239-9.45-9.45s4.239-9.45,9.45-9.45s9.45,4.239,9.45,9.45
		S276.807,131.375,271.596,131.375z"/>
	<path d="M271.168,127.24c-0.358,0-0.649,0.291-0.649,0.649s0.291,0.65,0.649,0.65s0.649-0.292,0.649-0.65
		S271.526,127.24,271.168,127.24z"/>
	<path d="M271.861,115.966c-2.2,0-3.991,1.791-3.991,3.993c0,0.294,0.033,0.592,0.1,0.891l0.023,0.09
		c0.043,0.255,0.262,0.438,0.52,0.438c0.292,0,0.527-0.236,0.527-0.527l-0.016-0.13c-0.064-0.24-0.099-0.497-0.099-0.762
		c0-0.785,0.306-1.522,0.858-2.076c1.109-1.109,3.044-1.109,4.153,0c0.554,0.554,0.859,1.291,0.859,2.076s-0.306,1.523-0.859,2.077
		c-0.321,0.32-0.715,0.564-1.138,0.708l-0.08,0.031c-1.174,0.241-2.026,1.244-2.076,2.456l-0.002,0.966
		c0,0.291,0.235,0.526,0.526,0.526s0.528-0.236,0.528-0.527v-0.867c0-0.413,0.16-0.803,0.453-1.097
		c0.215-0.215,0.484-0.361,0.843-0.443c1.684-0.496,2.86-2.071,2.86-3.83C275.852,117.757,274.061,115.966,271.861,115.966z"/>
</g>
</svg>
