<?xml version="1.0" encoding="utf-8"?>
<!-- Generator: Adobe Illustrator 16.0.0, SVG Export Plug-In . SVG Version: 6.00 Build 0)  -->
<!DOCTYPE svg PUBLIC "-//W3C//DTD SVG 1.1//EN" "http://www.w3.org/Graphics/SVG/1.1/DTD/svg11.dtd">
<svg version="1.1" id="Layer_1" xmlns="http://www.w3.org/2000/svg" xmlns:xlink="http://www.w3.org/1999/xlink" x="0px" y="0px"
	 width="87px" height="40.318px" viewBox="0 0 87 40.318" enable-background="new 0 0 87 40.318" xml:space="preserve">
<g>
	<path fill="#999B9E" d="M62.998,22.416v3.321c17.319,6.792,21.978,6.978,21.055,11.371c-0.053,0.238-0.261,0.408-0.501,0.408
		h-24.09h-3.26c-1.087,0-1.941,0-3.268,0c-0.201,0-0.412,0-0.636,0c-2.937,0-4.425-1.521-4.687-3.151
		c-0.173-1.196-0.186-5.399,0-6.878c0-0.006,0-0.015,0-0.023c0.292-1.677,1.953-3.322,4.681-3.265c0.006,0,0.008,0,0.008,0h3.786
		v3.096h0.115h3.338v-2.937l0.005,0.001c0,0.001,0,0.001,0,0.001l0.002-2.819c-1.587,0-3.746,0-3.904,0c0,0-0.013,0-0.018,0
		c-0.138,0.005-1.881,0.067-3.539,0.151c-1.551,0.077-3.041,0.334-3.328,0.386c-0.028,0.004-0.057,0.012-0.083,0.023
		c-1.237,0.443-2.352,1.221-3.308,2.584c-0.518,0.695-0.847,1.423-0.987,2.186c0,0.008-0.001,0.015-0.001,0.023
		c-0.155,1.128-0.442,7.427,0.44,9.217c0.002,0.007,0.006,0.013,0.009,0.02c0.751,1.372,1.701,2.344,3.231,3.123
		c2.099,1.158,3.712,0.919,11.402,0.919v-0.001h0.002c24.174,0,25.373,1.312,27.501-3.926C86.988,36.183,87,36.119,87,36.051
		C87,31.017,86.872,31.926,62.998,22.416z"/>
	<path fill="#999B9E" d="M42.616,26.871c-0.136-0.763-0.466-1.491-0.985-2.186c-0.953-1.363-2.067-2.141-3.306-2.584
		c-0.027-0.011-0.057-0.019-0.083-0.023c-0.288-0.052-1.777-0.309-3.328-0.386c-1.66-0.084-3.399-0.146-3.539-0.151
		c-0.008,0-0.013,0-0.021,0c-0.2,0-3.72,0-5.067,0c-0.064,0-0.132,0.012-0.192,0.037v3.328v9.404l3.455,0.173V24.247l1.246-0.048
		h3.898h0.011c2.728-0.057,4.39,1.588,4.681,3.265c0,0.008,0.001,0.017,0.001,0.023c0.186,1.479,0.175,5.682-0.001,6.878
		c-0.262,1.63-1.75,3.151-4.686,3.151c-0.226,0-0.435,0-0.637,0c-1.326,0-2.18,0-3.267,0h-3.261H3.449
		c-0.242,0-0.451-0.17-0.501-0.408c-0.9-4.279,3.495-4.569,19.698-10.845v-3.308C0.121,31.895,0,31.116,0,36.051
		c0,0.068,0.013,0.132,0.036,0.195c2.128,5.238,3.326,3.926,27.5,3.926v0.001c7.69,0,9.306,0.238,11.406-0.919
		c1.527-0.779,2.479-1.751,3.229-3.123c0.005-0.007,0.008-0.012,0.01-0.02c0.881-1.79,0.596-8.088,0.44-9.217
		C42.62,26.886,42.62,26.879,42.616,26.871z"/>
	<path fill="#999B9E" d="M41.46,19.333c0.555,0.129,0.626,0.28,0.595,0.772c-0.027,0.447-0.021,0.898-0.018,1.347
		c0.005,0.468,0.012,0.953-0.022,1.429c-0.014,0.124,0.028,0.247,0.11,0.338c0.084,0.092,0.202,0.146,0.33,0.146h2.213
		c0.12,0,0.235-0.049,0.323-0.136c0.084-0.086,0.132-0.206,0.131-0.327c-0.015-0.887-0.01-1.773-0.003-2.663
		c0.003-0.494,0.007-0.986,0.007-1.48c-0.003-1.795-0.344-2.171-2.154-2.368c-2.345-0.257-4.277-1.562-5.305-3.583
		c-1.026-2.028-0.937-4.371,0.25-6.427c1.152-1.995,3.275-3.187,5.683-3.187c2.014,0,3.868,0.869,5.087,2.381
		c0.89,1.108,1.38,2.409,1.549,4.082h3.147c0.002-0.076,0.007-0.151,0.001-0.232c-0.328-4.402-2.954-7.753-7.027-8.963
		c-3.728-1.107-7.113-0.224-9.774,2.549c-2.909,3.033-3.597,6.696-1.989,10.594C35.844,16.635,38.153,18.561,41.46,19.333z"/>
</g>
</svg>
