<?xml version="1.0" encoding="utf-8"?>
<!-- Generator: Adobe Illustrator 16.0.0, SVG Export Plug-In . SVG Version: 6.00 Build 0)  -->
<!DOCTYPE svg PUBLIC "-//W3C//DTD SVG 1.1//EN" "http://www.w3.org/Graphics/SVG/1.1/DTD/svg11.dtd">
<svg version="1.1" id="Layer_1" xmlns="http://www.w3.org/2000/svg" xmlns:xlink="http://www.w3.org/1999/xlink" x="0px" y="0px"
	 width="173px" height="59.014px" viewBox="0 0 173 59.014" enable-background="new 0 0 173 59.014" xml:space="preserve">
<g>
	<g>
		<path fill="#999B9E" d="M14.521,58.603v-3.014c-0.661,0.936-1.487,1.735-2.478,2.397c-0.992,0.663-2.216,0.993-3.673,0.993
			c-1.071,0-2.108-0.205-3.109-0.616c-1.002-0.411-1.892-1.021-2.666-1.832c-0.774-0.81-1.4-1.799-1.879-2.963
			C0.238,52.404,0,51.067,0,49.561c0-1.507,0.233-2.843,0.7-4.007c0.467-1.165,1.087-2.152,1.863-2.963
			c0.774-0.81,1.669-1.421,2.682-1.833c1.013-0.411,2.056-0.616,3.127-0.616c1.481,0,2.711,0.319,3.689,0.959
			c0.979,0.639,1.8,1.382,2.461,2.226v-9.728H18.7v25.004H14.521z M14.164,47.163c-0.286-0.707-0.666-1.318-1.145-1.832
			c-0.477-0.515-1.035-0.907-1.671-1.183c-0.638-0.273-1.297-0.411-1.98-0.411c-0.706,0-1.372,0.132-1.998,0.395
			c-0.626,0.262-1.178,0.645-1.656,1.146c-0.478,0.503-0.854,1.113-1.126,1.833c-0.273,0.719-0.41,1.536-0.41,2.449
			c0,0.89,0.136,1.695,0.41,2.415c0.273,0.719,0.648,1.33,1.126,1.833c0.478,0.503,1.029,0.891,1.656,1.165
			c0.626,0.274,1.292,0.41,1.998,0.41c0.684,0,1.343-0.135,1.98-0.41c0.636-0.274,1.194-0.668,1.671-1.182
			c0.479-0.514,0.858-1.125,1.145-1.833c0.284-0.707,0.427-1.507,0.427-2.397C14.59,48.67,14.448,47.872,14.164,47.163z"/>
		<path fill="#999B9E" d="M28.051,58.603h-4.179V40.519h4.179v4.075c0.57-1.37,1.381-2.465,2.432-3.288
			c1.05-0.823,2.374-1.199,3.972-1.13v4.384h-0.239c-0.914,0-1.747,0.148-2.5,0.444c-0.754,0.298-1.404,0.743-1.953,1.336
			c-0.548,0.595-0.97,1.342-1.267,2.244c-0.297,0.903-0.445,1.947-0.445,3.134V58.603z"/>
		<path fill="#999B9E" d="M42.333,54.442c0.936,0.788,2.078,1.181,3.425,1.181c1.027,0,1.917-0.182,2.671-0.547
			c0.754-0.365,1.496-0.902,2.227-1.61l2.431,2.158c-0.868,1.028-1.901,1.851-3.1,2.467c-1.199,0.616-2.631,0.924-4.298,0.924
			c-1.301,0-2.518-0.228-3.647-0.686c-1.131-0.456-2.112-1.095-2.945-1.917c-0.834-0.822-1.491-1.809-1.971-2.963
			c-0.479-1.152-0.718-2.437-0.718-3.853c0-1.301,0.217-2.522,0.65-3.665c0.434-1.14,1.044-2.14,1.833-2.996
			c0.788-0.856,1.719-1.535,2.792-2.039c1.072-0.501,2.261-0.752,3.562-0.752c1.438,0,2.7,0.263,3.784,0.788
			c1.084,0.525,1.987,1.232,2.705,2.124c0.72,0.89,1.262,1.929,1.628,3.116c0.364,1.188,0.547,2.432,0.547,3.733
			c0,0.183-0.006,0.366-0.017,0.548c-0.012,0.184-0.029,0.376-0.052,0.582h-13.29C40.802,52.519,41.398,53.654,42.333,54.442z
			 M49.8,48.294c-0.068-0.663-0.217-1.285-0.446-1.867c-0.228-0.583-0.535-1.085-0.924-1.507c-0.388-0.422-0.851-0.758-1.387-1.011
			c-0.538-0.25-1.147-0.376-1.833-0.376c-1.278,0-2.334,0.44-3.167,1.318c-0.834,0.879-1.342,2.026-1.524,3.443H49.8z"/>
		<path fill="#999B9E" d="M70.487,55.76c-0.343,0.708-0.817,1.296-1.421,1.765c-0.605,0.468-1.319,0.821-2.141,1.061
			c-0.822,0.24-1.701,0.36-2.637,0.36c-1.301,0-2.62-0.228-3.956-0.686c-1.336-0.456-2.575-1.13-3.716-2.02l1.849-2.809
			c0.981,0.73,1.98,1.284,2.998,1.661c1.015,0.376,1.991,0.564,2.928,0.564c0.89,0,1.581-0.176,2.072-0.531
			c0.492-0.353,0.737-0.828,0.737-1.421v-0.069c0-0.343-0.109-0.639-0.326-0.891c-0.218-0.251-0.514-0.473-0.891-0.667
			c-0.376-0.194-0.811-0.364-1.301-0.514c-0.49-0.149-0.999-0.302-1.524-0.462c-0.662-0.206-1.33-0.434-2.003-0.685
			c-0.674-0.251-1.279-0.576-1.814-0.976c-0.538-0.399-0.977-0.891-1.319-1.473c-0.342-0.583-0.514-1.306-0.514-2.175v-0.068
			c0-0.844,0.166-1.609,0.496-2.294c0.331-0.685,0.788-1.268,1.369-1.748c0.583-0.479,1.269-0.843,2.055-1.095
			c0.789-0.25,1.627-0.377,2.518-0.377c1.142,0,2.294,0.183,3.459,0.548c1.165,0.366,2.227,0.869,3.185,1.507l-1.643,2.946
			c-0.869-0.525-1.747-0.942-2.638-1.25c-0.89-0.309-1.711-0.462-2.465-0.462c-0.8,0-1.422,0.171-1.867,0.513
			c-0.445,0.342-0.667,0.777-0.667,1.302v0.068c0,0.32,0.113,0.6,0.341,0.839c0.229,0.24,0.531,0.458,0.909,0.651
			c0.376,0.194,0.81,0.377,1.302,0.548c0.491,0.171,0.999,0.338,1.523,0.497c0.662,0.206,1.324,0.445,1.987,0.719
			c0.662,0.274,1.262,0.611,1.798,1.011c0.537,0.398,0.976,0.885,1.318,1.455c0.343,0.571,0.514,1.268,0.514,2.089v0.069
			C71.001,54.219,70.83,55.052,70.487,55.76z"/>
		<path fill="#999B9E" d="M87.27,55.76c-0.342,0.708-0.816,1.296-1.421,1.765c-0.605,0.468-1.318,0.821-2.141,1.061
			s-1.701,0.36-2.638,0.36c-1.302,0-2.62-0.228-3.957-0.686c-1.335-0.456-2.574-1.13-3.716-2.02l1.85-2.809
			c0.981,0.73,1.98,1.284,2.997,1.661c1.016,0.376,1.992,0.564,2.929,0.564c0.891,0,1.581-0.176,2.072-0.531
			c0.49-0.353,0.736-0.828,0.736-1.421v-0.069c0-0.343-0.109-0.639-0.326-0.891c-0.217-0.251-0.513-0.473-0.89-0.667
			c-0.376-0.194-0.811-0.364-1.301-0.514c-0.492-0.149-1-0.302-1.524-0.462c-0.664-0.206-1.33-0.434-2.004-0.685
			c-0.674-0.251-1.279-0.576-1.815-0.976c-0.536-0.399-0.976-0.891-1.319-1.473c-0.342-0.583-0.513-1.306-0.513-2.175v-0.068
			c0-0.844,0.165-1.609,0.497-2.294c0.331-0.685,0.787-1.268,1.37-1.748c0.582-0.479,1.267-0.843,2.055-1.095
			c0.788-0.25,1.626-0.377,2.517-0.377c1.143,0,2.296,0.183,3.459,0.548c1.165,0.366,2.227,0.869,3.187,1.507l-1.644,2.946
			c-0.869-0.525-1.748-0.942-2.638-1.25c-0.89-0.309-1.712-0.462-2.466-0.462c-0.799,0-1.421,0.171-1.867,0.513
			c-0.445,0.342-0.667,0.777-0.667,1.302v0.068c0,0.32,0.114,0.6,0.343,0.839c0.228,0.24,0.531,0.458,0.908,0.651
			c0.377,0.194,0.81,0.377,1.302,0.548c0.491,0.171,0.998,0.338,1.523,0.497c0.662,0.206,1.325,0.445,1.987,0.719
			c0.662,0.274,1.262,0.611,1.799,1.011c0.535,0.398,0.976,0.885,1.318,1.455c0.342,0.571,0.514,1.268,0.514,2.089v0.069
			C87.784,54.219,87.612,55.052,87.27,55.76z"/>
		<path fill="#00BAC2" d="M104.738,58.072c-1.143,0.627-2.592,0.941-4.35,0.941c-1.348,0-2.592-0.245-3.733-0.736
			c-1.144-0.49-2.135-1.164-2.976-2.021c-0.84-0.856-1.497-1.849-1.968-2.979c-0.472-1.129-0.708-2.346-0.708-3.647
			c0-1.301,0.236-2.522,0.708-3.665c0.472-1.142,1.128-2.147,1.968-3.015c0.841-0.867,1.838-1.552,2.991-2.056
			c1.153-0.501,2.404-0.752,3.752-0.752c1.713,0,3.134,0.286,4.265,0.856c1.13,0.571,2.117,1.324,2.962,2.26l-2.568,2.774
			c-0.64-0.662-1.318-1.204-2.039-1.627c-0.718-0.422-1.604-0.633-2.653-0.633c-0.753,0-1.45,0.153-2.089,0.461
			c-0.641,0.308-1.188,0.725-1.645,1.251c-0.457,0.525-0.816,1.135-1.078,1.832c-0.263,0.697-0.395,1.444-0.395,2.244
			c0,0.822,0.131,1.587,0.395,2.294c0.262,0.708,0.633,1.325,1.111,1.85c0.48,0.524,1.052,0.941,1.713,1.25
			c0.663,0.309,1.394,0.463,2.192,0.463c0.981,0,1.844-0.211,2.586-0.634c0.741-0.422,1.444-0.963,2.106-1.626l2.501,2.465
			C106.896,56.628,105.88,57.444,104.738,58.072z"/>
		<path fill="#00BAC2" d="M128.594,53.226c-0.491,1.142-1.164,2.14-2.021,2.996c-0.856,0.856-1.878,1.536-3.065,2.038
			c-1.188,0.503-2.478,0.754-3.871,0.754c-1.369,0-2.644-0.245-3.818-0.736c-1.177-0.49-2.192-1.164-3.048-2.021
			c-0.857-0.856-1.524-1.849-2.004-2.979c-0.479-1.129-0.72-2.346-0.72-3.647c0-1.301,0.245-2.529,0.736-3.682
			c0.491-1.152,1.164-2.158,2.021-3.014c0.857-0.856,1.872-1.535,3.048-2.039c1.177-0.501,2.461-0.752,3.854-0.752
			c1.394,0,2.678,0.246,3.854,0.736c1.175,0.491,2.192,1.165,3.048,2.021c0.856,0.856,1.524,1.854,2.003,2.997
			c0.479,1.143,0.721,2.364,0.721,3.665C129.331,50.863,129.084,52.084,128.594,53.226z M124.743,47.368
			c-0.272-0.706-0.652-1.329-1.14-1.866c-0.488-0.536-1.067-0.959-1.737-1.267c-0.669-0.308-1.412-0.461-2.229-0.461
			c-0.817,0-1.561,0.153-2.229,0.461c-0.67,0.308-1.244,0.725-1.719,1.251c-0.478,0.525-0.841,1.135-1.09,1.832
			s-0.374,1.444-0.374,2.244c0,0.799,0.136,1.558,0.408,2.278c0.272,0.719,0.652,1.341,1.141,1.867
			c0.488,0.524,1.065,0.941,1.735,1.25s1.401,0.463,2.195,0.463c0.84,0,1.595-0.154,2.265-0.463c0.668-0.309,1.242-0.725,1.718-1.25
			c0.477-0.525,0.841-1.137,1.09-1.832c0.249-0.696,0.374-1.445,0.374-2.244C125.151,48.83,125.015,48.077,124.743,47.368z"/>
		<path fill="#00BAC2" d="M147.141,58.603v-3.014c-0.66,0.936-1.487,1.735-2.478,2.397c-0.991,0.663-2.216,0.993-3.673,0.993
			c-1.071,0-2.107-0.205-3.109-0.616c-1.003-0.411-1.892-1.021-2.665-1.832c-0.775-0.81-1.402-1.799-1.88-2.963
			c-0.479-1.164-0.717-2.5-0.717-4.007c0-1.507,0.233-2.843,0.699-4.007c0.468-1.165,1.089-2.152,1.862-2.963
			c0.774-0.81,1.67-1.421,2.683-1.833c1.014-0.411,2.056-0.616,3.127-0.616c1.48,0,2.71,0.319,3.689,0.959
			c0.979,0.639,1.801,1.382,2.461,2.226v-9.728h4.179v25.004H147.141z M146.782,47.163c-0.286-0.707-0.665-1.318-1.145-1.832
			c-0.477-0.515-1.034-0.907-1.671-1.183c-0.638-0.273-1.298-0.411-1.981-0.411c-0.705,0-1.371,0.132-1.996,0.395
			c-0.627,0.262-1.179,0.645-1.656,1.146c-0.479,0.503-0.854,1.113-1.127,1.833c-0.272,0.719-0.409,1.536-0.409,2.449
			c0,0.89,0.137,1.695,0.409,2.415c0.273,0.719,0.648,1.33,1.127,1.833c0.478,0.503,1.029,0.891,1.656,1.165
			c0.625,0.274,1.291,0.41,1.996,0.41c0.684,0,1.344-0.135,1.981-0.41c0.637-0.274,1.194-0.668,1.671-1.182
			c0.479-0.514,0.858-1.125,1.145-1.833c0.284-0.707,0.427-1.507,0.427-2.397C147.209,48.67,147.066,47.872,146.782,47.163z"/>
		<path fill="#00BAC2" d="M161.424,54.442c0.936,0.788,2.076,1.181,3.425,1.181c1.027,0,1.917-0.182,2.671-0.547
			c0.754-0.365,1.495-0.902,2.226-1.61l2.434,2.158c-0.869,1.028-1.902,1.851-3.1,2.467c-1.199,0.616-2.633,0.924-4.301,0.924
			c-1.301,0-2.517-0.228-3.646-0.686c-1.13-0.456-2.113-1.095-2.946-1.917c-0.833-0.822-1.49-1.809-1.969-2.963
			c-0.479-1.152-0.72-2.437-0.72-3.853c0-1.301,0.218-2.522,0.651-3.665c0.434-1.14,1.044-2.14,1.832-2.996
			c0.789-0.856,1.718-1.535,2.792-2.039c1.072-0.501,2.26-0.752,3.562-0.752c1.439,0,2.7,0.263,3.785,0.788
			c1.084,0.525,1.985,1.232,2.705,2.124c0.72,0.89,1.262,1.929,1.628,3.116c0.364,1.188,0.548,2.432,0.548,3.733
			c0,0.183-0.007,0.366-0.018,0.548c-0.012,0.184-0.029,0.376-0.051,0.582h-13.29C159.893,52.519,160.487,53.654,161.424,54.442z
			 M168.89,48.294c-0.069-0.663-0.217-1.285-0.446-1.867c-0.228-0.583-0.535-1.085-0.924-1.507c-0.39-0.422-0.851-0.758-1.388-1.011
			c-0.536-0.25-1.146-0.376-1.832-0.376c-1.279,0-2.335,0.44-3.168,1.318c-0.834,0.879-1.342,2.026-1.524,3.443H168.89z"/>
	</g>
	<g>
		<path fill="#999B9E" d="M99.119,14.508v2.149c11.209,4.396,14.224,4.516,13.627,7.359c-0.034,0.154-0.169,0.264-0.324,0.264
			H96.831h-2.11c-0.704,0-1.257,0-2.115,0c-0.13,0-0.267,0-0.412,0c-1.9,0-2.864-0.984-3.033-2.04c-0.112-0.774-0.121-3.495,0-4.451
			c0-0.004,0-0.01,0-0.016c0.189-1.085,1.264-2.149,3.029-2.113c0.004,0,0.005,0,0.005,0h2.45v2.003h0.075h2.16v-1.9l0.003,0
			c0,0,0,0,0,0l0.002-1.825c-1.027,0-2.425,0-2.527,0c0,0-0.008,0-0.011,0c-0.089,0.003-1.217,0.043-2.291,0.098
			c-1.003,0.05-1.968,0.216-2.153,0.25c-0.018,0.003-0.037,0.008-0.054,0.015c-0.801,0.287-1.522,0.791-2.141,1.672
			c-0.335,0.45-0.548,0.921-0.639,1.415c0,0.005-0.001,0.009-0.001,0.015c-0.1,0.73-0.286,4.807,0.285,5.965
			c0.002,0.005,0.004,0.008,0.006,0.013c0.486,0.888,1.101,1.517,2.091,2.021C90.81,26.154,91.854,26,96.831,26v-0.001h0.001
			c15.645,0,16.421,0.85,17.799-2.541c0.015-0.041,0.022-0.082,0.022-0.126C114.653,20.074,114.57,20.663,99.119,14.508z"/>
		<path fill="#999B9E" d="M85.928,17.391c-0.088-0.494-0.302-0.965-0.637-1.415c-0.617-0.882-1.338-1.386-2.14-1.672
			c-0.018-0.007-0.037-0.012-0.054-0.015c-0.186-0.034-1.15-0.2-2.153-0.25c-1.075-0.054-2.2-0.094-2.291-0.098
			c-0.005,0-0.008,0-0.013,0c-0.129,0-2.407,0-3.28,0c-0.041,0-0.085,0.008-0.124,0.024v2.153v6.086l2.236,0.112v-6.624l0.806-0.031
			h2.523h0.007c1.765-0.037,2.841,1.028,3.029,2.113c0,0.005,0.001,0.011,0.001,0.016c0.12,0.957,0.113,3.677-0.001,4.451
			c-0.169,1.055-1.132,2.04-3.033,2.04c-0.146,0-0.282,0-0.413,0c-0.858,0-1.41,0-2.114,0h-2.11H60.579
			c-0.157,0-0.292-0.11-0.324-0.264c-0.583-2.769,2.262-2.957,12.749-7.019v-2.141c-14.579,5.786-14.656,5.282-14.656,8.476
			c0,0.044,0.008,0.085,0.023,0.126c1.377,3.39,2.152,2.541,17.798,2.541l0,0V26c4.978,0,6.023,0.154,7.382-0.595
			c0.989-0.504,1.604-1.134,2.09-2.021c0.003-0.004,0.005-0.008,0.007-0.013c0.57-1.159,0.385-5.235,0.285-5.965
			C85.93,17.4,85.93,17.396,85.928,17.391z"/>
		<path fill="#999B9E" d="M86.158,10.609c-1.518-0.166-2.768-1.011-3.433-2.319c-0.665-1.312-0.606-2.829,0.162-4.16
			c0.746-1.292,2.12-2.062,3.678-2.062c1.304,0,2.503,0.562,3.292,1.541c0.576,0.717,0.893,1.559,1.003,2.642h2.037
			c0.001-0.049,0.004-0.098,0-0.15c-0.212-2.85-1.912-5.018-4.548-5.801c-2.412-0.716-4.604-0.145-6.326,1.65
			c-1.883,1.963-2.328,4.333-1.287,6.856c0.808,1.959,2.302,3.206,4.443,3.706c0.359,0.083,0.405,0.182,0.385,0.5
			c-0.018,0.29-0.014,0.581-0.012,0.872c0.004,0.302,0.008,0.616-0.014,0.924c-0.009,0.08,0.018,0.16,0.071,0.219
			c0.055,0.06,0.131,0.094,0.214,0.094h1.432c0.077,0,0.152-0.032,0.208-0.087c0.055-0.056,0.085-0.133,0.085-0.211
			c-0.01-0.574-0.007-1.148-0.002-1.724c0.002-0.319,0.005-0.638,0.005-0.958C87.55,10.98,87.33,10.736,86.158,10.609z"/>
	</g>
</g>
</svg>
