<?xml version="1.0" encoding="utf-8"?>
<!-- Generator: Adobe Illustrator 16.0.0, SVG Export Plug-In . SVG Version: 6.00 Build 0)  -->
<!DOCTYPE svg PUBLIC "-//W3C//DTD SVG 1.1//EN" "http://www.w3.org/Graphics/SVG/1.1/DTD/svg11.dtd">
<svg version="1.1" id="Layer_1" xmlns="http://www.w3.org/2000/svg" xmlns:xlink="http://www.w3.org/1999/xlink" x="0px" y="0px"
	 width="15.992px" height="21.002px" viewBox="281.1 116.422 15.992 21.002" enable-background="new 281.1 116.422 15.992 21.002"
	 xml:space="preserve">
<g>
	<path d="M294.751,118.772c-1.51-1.515-3.518-2.349-5.655-2.351c-2.136,0.002-4.144,0.836-5.653,2.351s-2.342,3.527-2.342,5.669
		c0,2.01,1.22,4.755,3.625,8.159c0.916,1.296,1.838,2.445,2.451,3.181c0.346,0.415,0.631,0.743,0.809,0.945
		c0.102,0.115,0.18,0.203,0.242,0.271c0.027,0.031,0.051,0.058,0.074,0.081l0.07,0.069c0.202,0.178,0.459,0.275,0.725,0.275
		c0.271,0,0.531-0.101,0.742-0.29l0.053-0.055c0.024-0.024,0.05-0.053,0.088-0.096l0.229-0.256c0.178-0.203,0.463-0.531,0.809-0.946
		c0.611-0.734,1.535-1.882,2.451-3.181c2.406-3.404,3.625-6.149,3.625-8.159C297.093,122.3,296.261,120.287,294.751,118.772z
		 M296.039,124.441c0,1.756-1.181,4.357-3.415,7.524c-1.643,2.327-3.293,4.16-3.477,4.362l-0.051,0.057l-0.051-0.057
		c-0.184-0.202-1.834-2.035-3.477-4.362c-2.234-3.167-3.414-5.769-3.414-7.524c0-1.858,0.721-3.605,2.032-4.92
		c1.311-1.315,3.055-2.039,4.91-2.039c1.854,0,3.599,0.724,4.909,2.039C295.317,120.836,296.039,122.583,296.039,124.441z"/>
	<path d="M289.096,120.783c-1.936,0-3.51,1.581-3.51,3.524s1.574,3.524,3.51,3.524s3.51-1.581,3.51-3.524
		S291.032,120.783,289.096,120.783z M289.096,126.772c-1.354,0-2.455-1.105-2.455-2.465s1.102-2.465,2.455-2.465
		c0.656,0,1.273,0.257,1.736,0.722c0.464,0.466,0.719,1.085,0.719,1.743c0,0.659-0.255,1.279-0.719,1.744
		C290.37,126.517,289.754,126.772,289.096,126.772z"/>
</g>
</svg>
