<?xml version="1.0" encoding="utf-8"?>
<!-- Generator: Adobe Illustrator 16.0.0, SVG Export Plug-In . SVG Version: 6.00 Build 0)  -->
<!DOCTYPE svg PUBLIC "-//W3C//DTD SVG 1.1//EN" "http://www.w3.org/Graphics/SVG/1.1/DTD/svg11.dtd">
<svg version="1.1" id="Layer_1" xmlns="http://www.w3.org/2000/svg" xmlns:xlink="http://www.w3.org/1999/xlink" x="0px" y="0px"
	 width="50.125px" height="30px" viewBox="0 0 50.125 30" enable-background="new 0 0 50.125 30" xml:space="preserve">
<g>
	<g>
		<polygon opacity="0.8" fill="#5A5A5A" enable-background="new    " points="45.66,15.418 45.641,15.292 45.604,15.17 
			45.564,15.053 45.514,14.952 45.453,14.856 45.389,14.775 45.312,14.704 45.227,14.644 45.135,14.603 45.039,14.578 
			44.934,14.568 44.796,14.578 44.67,14.598 44.553,14.639 44.438,14.689 44.336,14.754 44.234,14.835 44.146,14.922 44.062,15.018 
			43.986,15.129 43.914,15.246 43.85,15.367 43.794,15.499 43.743,15.635 43.702,15.771 43.662,15.919 43.632,16.064 43.605,16.287 
			43.616,16.53 43.65,16.777 43.717,17.018 43.818,17.225 43.95,17.391 44.117,17.503 44.318,17.542 44.461,17.532 44.594,17.503 
			44.714,17.467 44.831,17.412 44.938,17.352 45.039,17.273 45.135,17.188 45.223,17.098 45.297,16.996 45.366,16.885 45.434,16.77 
			45.488,16.646 45.54,16.521 45.58,16.389 45.613,16.253 45.641,16.116 45.665,15.975 45.682,15.827 45.682,15.691 45.677,15.549 
					"/>
		<polygon opacity="0.8" fill="#5A5A5A" enable-background="new    " points="37.104,16.268 37.07,16.253 37.02,16.236 
			36.962,16.232 36.896,16.229 36.822,16.229 36.745,16.232 36.663,16.242 36.584,16.253 36.502,16.264 36.427,16.271 
			36.352,16.287 36.285,16.299 36.221,16.312 36.169,16.323 36.133,16.328 36.093,16.343 36.042,16.359 35.986,16.379 35.921,16.41 
			35.859,16.439 35.789,16.477 35.725,16.521 35.657,16.566 35.592,16.622 35.536,16.678 35.48,16.743 35.436,16.814 35.398,16.891 
			35.37,16.971 35.354,17.059 35.35,17.229 35.375,17.366 35.414,17.467 35.477,17.542 35.551,17.593 35.639,17.624 35.725,17.639 
			35.809,17.645 35.96,17.639 36.104,17.624 36.234,17.6 36.352,17.562 36.461,17.521 36.559,17.477 36.648,17.427 36.73,17.366 
			36.801,17.311 36.861,17.244 36.918,17.184 36.962,17.118 36.998,17.059 37.023,16.996 37.044,16.936 37.059,16.88 37.08,16.738 
			37.104,16.591 37.125,16.449 37.135,16.323 37.125,16.292 		"/>
		<polygon opacity="0.8" fill="#5A5A5A" enable-background="new    " points="29.025,15.503 27.455,15.503 27.303,16.323 
			29.008,16.323 28.993,16.064 29.003,15.671 		"/>
		<path opacity="0.8" fill="#5A5A5A" enable-background="new    " d="M50.104,14.203l-0.056-0.759l-0.097-0.749l-0.131-0.733
			l-0.168-0.724l-0.202-0.709l-0.237-0.698l-0.268-0.678L48.641,8.49l-0.33-0.648L47.948,7.22l-0.392-0.613l-0.418-0.586
			L46.693,5.46l-0.471-0.546l-0.5-0.521L45.2,3.896l-0.548-0.471l-0.564-0.444L43.5,2.561l-0.611-0.39L42.26,1.812l-0.646-0.329
			l-0.668-0.304l-0.684-0.268l-0.699-0.238L38.85,0.471l-0.723-0.167l-0.744-0.131l-0.749-0.096L35.87,0.02L35.096,0l-0.769,0.02
			l-0.765,0.056l-0.748,0.096l-0.739,0.131L31.35,0.47l-0.713,0.202L29.943,0.91L29.26,1.178l-0.662,0.304l-0.644,0.329L27.329,2.17
			l-0.606,0.39l-0.588,0.42l-0.566,0.444l-0.505,0.44l0.034,0.031l0.522,0.496l0.496,0.521l0.021,0.025h-2.144l-0.688,0.814h3.511
			l0.213,0.269l0.414,0.586l0.09,0.142h-4.942l-0.48,0.815h5.922l0.158,0.278l0.336,0.648l0.029,0.065h-6.982L21.22,9.369h7.692
			l0.182,0.46l0.18,0.537h-8.413l-0.253,0.814h8.906l0.016,0.056l0.166,0.724l0.039,0.212h-9.329l-0.157,0.815h9.616l0.018,0.141
			l0.041-0.056l0.102-0.122l0.102-0.111l0.105-0.106l0.117-0.102l0.114-0.095l0.122-0.087l0.128-0.081l0.136-0.076l0.137-0.066
			l0.143-0.06l0.146-0.056l0.156-0.051l0.156-0.041l0.162-0.035l0.173-0.031l0.171-0.025l0.184-0.02l0.182-0.011l0.191-0.005
			l0.162,0.005l0.158,0.011l0.151,0.015l0.151,0.021l0.141,0.02l0.137,0.03l0.133,0.025l0.121,0.03l0.117,0.03l0.102,0.031
			l0.097,0.03l0.08,0.03l0.071,0.025l0.061,0.02l0.046,0.021l0.029,0.01l-0.253,1.402l-0.065-0.035l-0.065-0.031l-0.07-0.035
			l-0.075-0.035L33.8,13.484l-0.086-0.03l-0.085-0.03l-0.092-0.03l-0.096-0.025l-0.098-0.021l-0.105-0.021l-0.105-0.015
			l-0.115-0.011l-0.117-0.01h-0.121h-0.127h-0.127l-0.131,0.01l-0.138,0.016l-0.144,0.025l-0.139,0.04l-0.144,0.056l-0.142,0.072
			l-0.142,0.091l-0.138,0.112l-0.131,0.131l-0.127,0.162l-0.12,0.188l-0.111,0.223l-0.106,0.253l-0.096,0.283l-0.082,0.324
			l-0.029,0.182l-0.021,0.177l-0.01,0.179l0.005,0.172l0.015,0.173l0.036,0.161l0.046,0.152l0.057,0.15l0.074,0.137l0.092,0.131
			l0.105,0.116l0.122,0.106l0.138,0.091l0.156,0.075l0.171,0.064l0.192,0.047l0.064,0.017l0.077,0.015l0.091,0.01l0.103,0.01
			l0.11,0.012h0.115h0.129l0.125-0.012l0.133-0.015l0.129-0.024l0.129-0.035l0.127-0.041l0.126-0.057l0.114-0.064l0.107-0.081
			l0.102-0.092l-0.229,1.352l-0.031,0.025l-0.029,0.03l-0.039,0.035l-0.047,0.03l-0.055,0.039l-0.072,0.036l-0.08,0.036
			l-0.092,0.028l-0.115,0.035l-0.133,0.026l-0.15,0.021l-0.178,0.02l-0.196,0.012l-0.229,0.006l-0.258-0.006l-0.283-0.017
			l-0.231-0.024l-0.233-0.051l-0.232-0.076l-0.231-0.102l-0.224-0.12l-0.213-0.152l-0.201-0.178l-0.188-0.202l-0.168-0.227
			l-0.142-0.254l-0.019-0.041h-2.146l-0.15,0.815h2.696l-0.138,0.597l-0.111,0.396H20.71l0.253,0.812h8.198l-0.065,0.203
			l-0.269,0.685l-0.052,0.11h-7.427l0.379,0.813h6.667l-0.201,0.39L27.85,22.74h-5.562l0.511,0.814h4.52l-0.289,0.409l-0.445,0.566
			l-0.014,0.015h-3.007l0.714,0.821h1.561l-0.22,0.231l-0.522,0.5l-0.034,0.031l0.506,0.439l0.565,0.445l0.587,0.42l0.607,0.391
			l0.626,0.363l0.644,0.33l0.662,0.303l0.684,0.268l0.693,0.238l0.713,0.203l0.726,0.166l0.739,0.132l0.748,0.097l0.765,0.057
			L35.096,30l0.774-0.02l0.764-0.057l0.749-0.097l0.744-0.132l0.723-0.166l0.713-0.203l0.699-0.238l0.684-0.268l0.668-0.303
			l0.646-0.33l0.629-0.363l0.611-0.391l0.588-0.42l0.564-0.445l0.548-0.471l0.522-0.502l0.5-0.521l0.471-0.548l0.445-0.565
			l0.418-0.587l0.392-0.611l0.362-0.629l0.33-0.646l0.305-0.668l0.268-0.685l0.237-0.698l0.202-0.713l0.168-0.723l0.131-0.744
			l0.097-0.749l0.056-0.764l0.021-0.774L50.104,14.203z M38.15,18.768h-1.27l0.01-0.207l0.006-0.183V18.24l0.01-0.061l-0.064,0.076
			l-0.076,0.075l-0.091,0.071l-0.101,0.07l-0.106,0.064L36.346,18.6l-0.125,0.062l-0.128,0.051l-0.138,0.041l-0.143,0.039
			l-0.141,0.025l-0.143,0.021l-0.146,0.011l-0.143,0.006l-0.138-0.017l-0.136-0.021l-0.183-0.045l-0.161-0.051l-0.144-0.065
			l-0.131-0.076l-0.111-0.082l-0.096-0.09l-0.082-0.097l-0.07-0.102l-0.061-0.105l-0.046-0.112l-0.041-0.11l-0.024-0.111
			L33.8,17.655l-0.015-0.118l-0.01-0.11v-0.11l0.01-0.197l0.029-0.188l0.045-0.178l0.067-0.173l0.074-0.161l0.097-0.146l0.106-0.143
			l0.116-0.126l0.132-0.116l0.137-0.106l0.146-0.097l0.158-0.08l0.155-0.071l0.168-0.056l0.167-0.045l0.172-0.03h0.01l0.025-0.005
			l0.036-0.005l0.05-0.005l0.065-0.011l0.069-0.005l0.078-0.01l0.08-0.011l0.086-0.01l0.092-0.01l0.086-0.005l0.086-0.01l0.08-0.005
			l0.072-0.006L36.54,15.3h0.056h0.122l0.121,0.005l0.115,0.006h0.112l0.095,0.005l0.082,0.005l0.046,0.005h0.02l0.012-0.035
			l0.016-0.091l0.016-0.106l0.01-0.096l-0.021-0.111L37.3,14.785l-0.065-0.09l-0.076-0.076l-0.09-0.066l-0.107-0.045l-0.109-0.03
			l-0.121-0.01l-0.143-0.006l-0.152-0.005h-0.156l-0.162,0.005l-0.167,0.011l-0.161,0.015l-0.161,0.015l-0.157,0.021l-0.15,0.021
			l-0.147,0.025l-0.132,0.025L34.92,14.62l-0.111,0.03l-0.092,0.03l-0.07,0.036l-0.056,0.03l0.354-1.219l0.111-0.046l0.116-0.04
			l0.116-0.036l0.121-0.025l0.127-0.025l0.126-0.021l0.132-0.02l0.137-0.011l0.144-0.01l0.146-0.005l0.146-0.005h0.158h0.156h0.161
			l0.171,0.005l0.174,0.005l0.143,0.01l0.15,0.025l0.156,0.036l0.162,0.045l0.156,0.061l0.156,0.071l0.152,0.086l0.141,0.096
			l0.129,0.111l0.115,0.122l0.102,0.137l0.076,0.152l0.056,0.161l0.034,0.172v0.192l-0.023,0.203l-0.533,2.671L38.15,18.768z
			 M41.645,14.674l-0.147,0.051l-0.132,0.06l-0.116,0.076l-0.101,0.082l-0.092,0.085l-0.08,0.096l-0.066,0.101l-0.061,0.106
			l-0.052,0.112l-0.04,0.112l-0.029,0.111l-0.03,0.109l-0.021,0.111l-0.513,2.881h-1.427l0.947-5.419h1.42l-0.15,0.916l0.07-0.101
			l0.076-0.091l0.076-0.096l0.074-0.086l0.082-0.082l0.08-0.081l0.086-0.071l0.092-0.071l0.098-0.06l0.101-0.056l0.106-0.051
			l0.109-0.041l0.123-0.035l0.125-0.025l0.139-0.016l0.142-0.01l-0.229,1.301H42.29h-0.04h-0.07l-0.197,0.01l-0.178,0.03
			L41.645,14.674z M46.611,18.768H45.21l0.103-0.562v-0.051l-0.08,0.102l-0.088,0.091l-0.086,0.08l-0.092,0.07l-0.09,0.066
			l-0.091,0.057l-0.093,0.045l-0.096,0.046l-0.097,0.034l-0.097,0.025l-0.096,0.024l-0.103,0.017l-0.101,0.016l-0.098,0.01
			l-0.102,0.005h-0.102l-0.263-0.02l-0.243-0.056l-0.222-0.088l-0.202-0.115l-0.184-0.146l-0.162-0.173l-0.141-0.187l-0.121-0.214
			l-0.103-0.227l-0.081-0.238l-0.057-0.248l-0.041-0.258l-0.014-0.258l0.004-0.263l0.024-0.261l0.046-0.257l0.077-0.298l0.09-0.284
			l0.106-0.258l0.125-0.243l0.134-0.228l0.151-0.202l0.156-0.182l0.166-0.167l0.178-0.147l0.188-0.126l0.19-0.111l0.192-0.086
			l0.202-0.071l0.202-0.044l0.202-0.031l0.209-0.01l0.146,0.005l0.141,0.016l0.133,0.025l0.12,0.035l0.118,0.041l0.101,0.045
			l0.103,0.056l0.09,0.056l0.08,0.061l0.078,0.065l0.064,0.066l0.061,0.065l0.051,0.066l0.046,0.066l0.04,0.061l0.031,0.061
			l0.354-1.989h1.376L46.611,18.768z"/>
	</g>
	<g>
		<polygon fill="#5A5A5A" points="24.126,15.428 24.136,15.301 24.131,15.18 24.121,15.069 24.1,14.968 24.065,14.871 24.03,14.785 
			23.979,14.709 23.929,14.639 23.868,14.578 23.802,14.527 23.727,14.481 23.65,14.441 23.569,14.411 23.488,14.391 23.402,14.375 
			23.311,14.365 23.215,14.37 23.125,14.385 23.038,14.405 22.952,14.437 22.866,14.477 22.79,14.522 22.714,14.578 22.648,14.639 
			22.583,14.709 22.521,14.785 22.466,14.866 22.42,14.952 22.375,15.043 22.339,15.145 22.309,15.246 22.289,15.352 22.274,15.428 
					"/>
		<polygon fill="#5A5A5A" points="12.205,16.271 12.174,16.258 12.124,16.247 12.068,16.236 12.002,16.232 11.926,16.232 
			11.851,16.232 11.77,16.236 11.683,16.247 11.603,16.258 11.522,16.268 11.446,16.277 11.375,16.292 11.313,16.309 11.258,16.323 
			11.223,16.333 11.182,16.348 11.127,16.369 11.071,16.395 11.005,16.425 10.939,16.461 10.869,16.495 10.803,16.535 
			10.732,16.586 10.667,16.637 10.605,16.697 10.55,16.759 10.5,16.824 10.464,16.895 10.434,16.977 10.419,17.059 10.413,17.229 
			10.438,17.366 10.489,17.467 10.555,17.542 10.631,17.593 10.717,17.624 10.798,17.639 10.879,17.645 11.031,17.639 
			11.167,17.624 11.299,17.604 11.415,17.573 11.516,17.537 11.612,17.491 11.699,17.445 11.774,17.391 11.84,17.34 11.901,17.279 
			11.952,17.225 11.992,17.164 12.027,17.104 12.058,17.041 12.083,16.986 12.099,16.932 12.139,16.783 12.174,16.617 
			12.205,16.456 12.23,16.323 12.225,16.299 		"/>
		<path fill="#5A5A5A" d="M29.596,17.836l-0.166-0.227l-0.143-0.254l-0.122-0.283l-0.09-0.309l-0.062-0.34l-0.021-0.359l0.01-0.395
			l0.056-0.42l0.041-0.207l0.045-0.202l0.051-0.198l0.052-0.188l0.056-0.177l0.066-0.177l0.064-0.167l0.07-0.157l0.077-0.156
			l0.073-0.147l0.088-0.142l0.092-0.131l0.05-0.071l-0.055-0.435l-0.134-0.733l-0.166-0.724l-0.201-0.709l-0.232-0.698l-0.269-0.678
			l-0.3-0.663l-0.334-0.648L27.835,7.22l-0.39-0.613l-0.416-0.586L26.585,5.46l-0.47-0.546l-0.496-0.521l-0.522-0.496l-0.541-0.471
			L23.99,2.982l-0.587-0.42l-0.607-0.39l-0.627-0.359l-0.642-0.329L20.863,1.18L20.18,0.912l-0.693-0.238l-0.713-0.202L18.05,0.305
			l-0.74-0.133l-0.749-0.096L15.797,0.02L15.028,0l-0.774,0.02l-0.765,0.056L12.74,0.172l-0.743,0.131L11.273,0.47L10.56,0.673
			L9.861,0.911L9.179,1.179L8.511,1.483L7.863,1.812L7.235,2.17L6.623,2.56L6.036,2.98L5.47,3.425L4.923,3.896L4.402,4.392
			L3.901,4.914L3.431,5.46L2.985,6.021L2.566,6.608l-0.39,0.613L1.811,7.843L1.482,8.491L1.179,9.153L0.911,9.831l-0.238,0.698
			l-0.202,0.709l-0.167,0.724l-0.132,0.733l-0.096,0.749l-0.055,0.759L0,14.973l0.021,0.774l0.055,0.764l0.096,0.749l0.132,0.744
			l0.167,0.723l0.202,0.713l0.238,0.699l0.268,0.685l0.304,0.667l0.329,0.646l0.365,0.629l0.39,0.611l0.419,0.587l0.446,0.565
			l0.471,0.548l0.501,0.521L4.925,26.1L5.47,26.57l0.566,0.445l0.587,0.418l0.612,0.392l0.627,0.362l0.648,0.33l0.668,0.303
			l0.683,0.269l0.699,0.238l0.714,0.203l0.724,0.165l0.743,0.133l0.749,0.097l0.765,0.056L15.028,30l0.769-0.02l0.764-0.057
			l0.749-0.097l0.739-0.132l0.724-0.166l0.713-0.203l0.693-0.238l0.683-0.268l0.664-0.303l0.642-0.33l0.627-0.363l0.607-0.391
			l0.587-0.42l0.566-0.445l0.541-0.471l0.522-0.502l0.495-0.521l0.471-0.548l0.445-0.565l0.414-0.587l0.391-0.611l0.357-0.629
			l0.336-0.646l0.299-0.668l0.268-0.685l0.233-0.698l0.202-0.713l0.166-0.723l0.009-0.049L29.596,17.836z M8.177,18.768H6.801
			l0.87-4.963H7.615l-2.059,4.963H4.002l-0.01-0.207l-0.036-0.552l-0.045-0.784l-0.051-0.9l-0.05-0.905l-0.046-0.795l-0.035-0.577
			l-0.01-0.243H3.704h-0.03h-0.03l-0.84,4.963H1.427l1.149-6.644H4.97l0.228,3.942l1.654-3.942h2.5L8.177,18.768z M13.247,18.768
			h-1.275l0.035-0.207l0.025-0.188l0.021-0.143l0.021-0.075l-0.071,0.079l-0.081,0.082l-0.096,0.076l-0.106,0.07l-0.122,0.07
			l-0.126,0.061l-0.132,0.062l-0.136,0.051l-0.146,0.046l-0.147,0.034l-0.147,0.031l-0.152,0.02l-0.146,0.01l-0.147,0.008
			l-0.141-0.018l-0.137-0.02l-0.177-0.047L9.7,18.723l-0.142-0.065L9.432,18.58l-0.111-0.082l-0.101-0.09l-0.082-0.096l-0.07-0.103
			l-0.062-0.104l-0.05-0.113l-0.041-0.11l-0.03-0.11l-0.021-0.115L8.85,17.537l-0.011-0.11v-0.11l0.016-0.197l0.03-0.188l0.05-0.178
			l0.066-0.173l0.081-0.161l0.091-0.146l0.106-0.143l0.122-0.126l0.126-0.116l0.142-0.106l0.146-0.097l0.152-0.08l0.162-0.071
			l0.167-0.056l0.172-0.045l0.177-0.03h0.01l0.025-0.005l0.036-0.005l0.056-0.005l0.06-0.011l0.071-0.005l0.076-0.01l0.086-0.011
			l0.086-0.01l0.085-0.01l0.091-0.005l0.081-0.01l0.081-0.005l0.076-0.006l0.071-0.005h0.056h0.116l0.122,0.005l0.111,0.006h0.111
			l0.092,0.005l0.07,0.005l0.051,0.005h0.016l0.01-0.035l0.031-0.091l0.025-0.106l0.01-0.096l-0.021-0.111l-0.045-0.102l-0.061-0.09
			l-0.081-0.076l-0.097-0.066l-0.106-0.045l-0.122-0.03l-0.131-0.01l-0.142-0.006l-0.152-0.005h-0.157l-0.163,0.005l-0.167,0.011
			l-0.162,0.015l-0.162,0.015l-0.157,0.021l-0.152,0.021l-0.147,0.025l-0.131,0.025L9.979,14.62l-0.111,0.03l-0.091,0.03
			L9.71,14.715l-0.056,0.03l0.359-1.219l0.112-0.046l0.111-0.04l0.122-0.036l0.122-0.025l0.122-0.025l0.131-0.021l0.131-0.02
			L11,13.302l0.142-0.01l0.146-0.005l0.151-0.005h0.158h0.162h0.167l0.177,0.005l0.177,0.005l0.142,0.01l0.152,0.025l0.157,0.036
			l0.161,0.045l0.158,0.061l0.152,0.071l0.151,0.086l0.142,0.096l0.126,0.111l0.111,0.122l0.102,0.137l0.076,0.152l0.051,0.161
			l0.03,0.172v0.192l-0.03,0.203l-0.511,2.67L13.247,18.768z M15.711,15.002l0.021,0.066l0.041,0.065l0.051,0.066l0.101,0.096
			l0.121,0.076l0.142,0.065l0.152,0.056l0.162,0.051l0.167,0.055l0.167,0.062l0.162,0.064l0.152,0.086l0.141,0.106l0.126,0.125
			l0.107,0.159l0.081,0.189l0.051,0.229l0.021,0.272l-0.021,0.318l-0.036,0.238l-0.06,0.208l-0.081,0.192l-0.101,0.166l-0.117,0.146
			l-0.131,0.126l-0.142,0.111l-0.157,0.096l-0.163,0.076l-0.168,0.07l-0.172,0.051l-0.177,0.041l-0.172,0.031l-0.167,0.014
			l-0.167,0.011l-0.157,0.005H15.27l-0.203-0.005H14.89l-0.167-0.005l-0.152-0.006l-0.137-0.01l-0.122-0.01l-0.116-0.017
			L14.09,18.73l-0.097-0.02L13.9,18.695l-0.086-0.024l-0.086-0.021l-0.081-0.029l-0.082-0.031l-0.086-0.029l0.228-1.119l0.045,0.012
			l0.056,0.015l0.071,0.021l0.086,0.021l0.091,0.021l0.101,0.02l0.111,0.026l0.122,0.02l0.126,0.021l0.132,0.02l0.136,0.015
			l0.142,0.018l0.147,0.005l0.146,0.005h0.147l0.147-0.005l0.146-0.03l0.117-0.039l0.091-0.059l0.071-0.07l0.051-0.068l0.041-0.082
			l0.025-0.082l0.021-0.074l0.01-0.146l-0.046-0.131l-0.085-0.103l-0.126-0.085l-0.152-0.076L15.5,16.552l-0.198-0.071l-0.197-0.08
			l-0.202-0.092l-0.193-0.104l-0.177-0.134l-0.163-0.155l-0.126-0.192l-0.09-0.228l-0.046-0.273l0.005-0.324l0.025-0.197
			l0.036-0.187l0.05-0.172l0.061-0.163l0.081-0.152l0.091-0.131l0.106-0.126l0.126-0.111l0.146-0.097l0.163-0.081l0.182-0.076
			l0.203-0.056l0.228-0.046l0.248-0.035l0.273-0.021l0.298-0.005h0.187l0.172,0.005l0.157,0.005l0.142,0.005l0.126,0.011l0.117,0.01
			l0.101,0.01l0.091,0.01l0.085,0.01l0.071,0.016l0.065,0.01l0.062,0.011l0.05,0.01l0.046,0.005l0.045,0.011l0.04,0.005
			l-0.258,1.144l-0.071-0.005l-0.071-0.011l-0.065-0.01l-0.066-0.01l-0.062-0.01l-0.065-0.011l-0.066-0.01l-0.071-0.01l-0.07-0.011
			l-0.082-0.005l-0.09-0.005l-0.096-0.005h-0.106l-0.117,0.005l-0.131,0.01l-0.146,0.011l-0.102,0.015l-0.096,0.016l-0.086,0.03
			l-0.076,0.03l-0.07,0.036l-0.066,0.04l-0.051,0.05l-0.045,0.046l-0.03,0.055l-0.025,0.057l-0.011,0.06v0.061L15.711,15.002z
			 M20.331,18.534l-0.036,0.026l-0.035,0.02l-0.035,0.02l-0.036,0.021l-0.035,0.015l-0.041,0.015l-0.046,0.017l-0.045,0.015
			l-0.051,0.017l-0.051,0.011l-0.06,0.01l-0.061,0.01l-0.066,0.011l-0.076,0.01l-0.081,0.012l-0.086,0.011h-0.384l-0.202-0.016
			l-0.177-0.021l-0.163-0.028l-0.136-0.036l-0.116-0.045l-0.097-0.051L18.13,18.51l-0.066-0.066l-0.051-0.069l-0.035-0.087
			L17.953,18.2l-0.015-0.095l-0.005-0.108v-0.11l0.015-0.115l0.015-0.127l0.967-5.521h1.402l-0.208,1.225h0.845l-0.182,1.144
			l-0.891-0.025L19.41,17.29l-0.005,0.103l0.025,0.086l0.051,0.064l0.065,0.059l0.092,0.033l0.101,0.031l0.112,0.02l0.121,0.01
			l0.112-0.004l0.101-0.01l0.091-0.016l0.081-0.021l0.065-0.02l0.046-0.016l0.03-0.01l0.01-0.007L20.331,18.534z M24.986,18.482
			l-0.082,0.041l-0.08,0.041l-0.081,0.029l-0.075,0.031l-0.077,0.023l-0.081,0.025l-0.08,0.021l-0.086,0.016l-0.091,0.016
			l-0.102,0.01l-0.106,0.01l-0.116,0.012l-0.132,0.006H23.66l-0.157,0.004h-0.167l-0.248-0.004l-0.253-0.027l-0.253-0.033
			l-0.253-0.062l-0.248-0.074l-0.238-0.098l-0.228-0.127l-0.212-0.146l-0.197-0.172l-0.172-0.207l-0.147-0.232l-0.122-0.268
			l-0.085-0.299l-0.056-0.34l-0.016-0.373l0.025-0.416l0.021-0.162l0.03-0.187l0.041-0.198l0.056-0.213l0.076-0.217l0.091-0.218
			l0.117-0.223l0.142-0.213l0.161-0.203l0.198-0.191l0.223-0.172l0.253-0.152l0.293-0.126l0.329-0.091l0.364-0.06l0.41-0.021
			l0.197,0.005l0.208,0.021l0.207,0.035l0.208,0.051l0.202,0.076l0.197,0.092l0.183,0.121l0.167,0.142l0.151,0.172l0.127,0.202
			l0.102,0.233l0.07,0.268l0.041,0.304l0.005,0.344l-0.034,0.385l-0.077,0.425l-0.024,0.309h-3.284l-0.011,0.062l-0.005,0.091
			l0.01,0.097l0.02,0.096l0.036,0.098l0.04,0.091l0.056,0.097l0.061,0.086l0.071,0.086l0.076,0.074l0.081,0.077l0.091,0.062
			l0.09,0.055l0.102,0.046l0.101,0.036l0.102,0.02l0.131,0.021l0.126,0.015l0.131,0.015l0.131,0.013l0.132,0.005h0.136l0.131-0.005
			l0.137-0.013l0.136-0.02l0.137-0.023l0.142-0.031l0.135-0.047l0.143-0.055l0.146-0.061l0.142-0.082l0.147-0.087L24.986,18.482z
			 M28.934,14.304l-0.035,0.132l-0.025,0.111l-0.021,0.091l-0.015,0.061l-0.005,0.021h-0.005l-0.017-0.005l-0.021-0.006
			l-0.024-0.005H28.74l-0.026-0.005l-0.021-0.005H28.68l-0.197,0.015l-0.172,0.025l-0.156,0.041l-0.143,0.046l-0.121,0.055
			l-0.111,0.061l-0.092,0.077l-0.08,0.076l-0.07,0.086l-0.061,0.091l-0.052,0.096l-0.04,0.101l-0.035,0.103l-0.024,0.105
			l-0.026,0.105l-0.02,0.111l-0.486,2.879H26.77h-1.43l0.946-5.418h1.452l-0.184,0.916l0.077-0.101l0.075-0.101l0.07-0.096
			l0.076-0.086l0.076-0.086l0.074-0.076l0.082-0.076l0.086-0.066l0.092-0.061l0.096-0.05l0.106-0.051l0.116-0.041l0.12-0.03
			l0.133-0.025l0.142-0.016l0.156-0.01h0.036l0.034,0.005l0.041,0.005h0.035l0.037,0.005l0.023,0.006l0.02,0.005h0.007l-0.011,0.015
			l-0.024,0.036l-0.036,0.06l-0.046,0.076L29.2,13.591l-0.05,0.096L29.1,13.783l-0.041,0.096l-0.043,0.142l-0.047,0.142
			L28.934,14.304z"/>
	</g>
</g>
</svg>
