<?xml version="1.0" encoding="utf-8"?>
<!-- Generator: Adobe Illustrator 16.0.0, SVG Export Plug-In . SVG Version: 6.00 Build 0)  -->
<!DOCTYPE svg PUBLIC "-//W3C//DTD SVG 1.1//EN" "http://www.w3.org/Graphics/SVG/1.1/DTD/svg11.dtd">
<svg version="1.1" id="Layer_1" xmlns="http://www.w3.org/2000/svg" xmlns:xlink="http://www.w3.org/1999/xlink" x="0px" y="0px"
	 width="174.014px" height="174.014px" viewBox="49.568 -24.095 174.014 174.014"
	 enable-background="new 49.568 -24.095 174.014 174.014" xml:space="preserve">
<g>
	<path fill="#34B0B6" d="M136.575-24.095c-48.053,0-87.007,38.954-87.007,87.007s38.954,87.007,87.007,87.007
		s87.007-38.954,87.007-87.007S184.628-24.095,136.575-24.095z M180.525,42.978l-52.412,52.44c-0.974,0.973-2.334,1.531-3.731,1.531
		h-0.001c-1.41,0-2.729-0.538-3.717-1.516l-25.484-25.5c-0.999-1.008-1.545-2.329-1.545-3.731c0-1.415,0.554-2.743,1.559-3.739
		c0.96-0.978,2.292-1.535,3.716-1.535c1.399,0,2.719,0.545,3.717,1.532l21.754,21.769l48.681-48.706
		c0.973-0.974,2.332-1.531,3.73-1.531c1.401,0,2.763,0.56,3.734,1.537C182.572,37.576,182.575,40.92,180.525,42.978z"/>
</g>
</svg>
