<?xml version="1.0" encoding="utf-8"?>
<!-- Generator: Adobe Illustrator 19.1.0, SVG Export Plug-In . SVG Version: 6.00 Build 0)  -->
<svg version="1.1" id="Layer_1" xmlns="http://www.w3.org/2000/svg" xmlns:xlink="http://www.w3.org/1999/xlink" x="0px" y="0px"
	 viewBox="0 0 174.014 174.014" style="enable-background:new 0 0 174.014 174.014;" xml:space="preserve">
<style type="text/css">
	.st0{fill:#31B1B5;}
</style>
<g>
	<path class="st0" d="M73.136,95.596h41.787L125.46,66.58H62.599L73.136,95.596z"/>
	<path class="st0" d="M76.329,124.54c-1.069,0-1.938,0.872-1.938,1.944c0,1.072,0.869,1.944,1.938,1.944
		c1.07,0,1.94-0.872,1.94-1.944C78.268,125.412,77.398,124.54,76.329,124.54z"/>
	<path class="st0" d="M98.184,124.54c-1.069,0-1.939,0.872-1.939,1.944c0,1.072,0.87,1.944,1.939,1.944
		c1.071,0,1.942-0.872,1.942-1.944C100.126,125.412,99.255,124.54,98.184,124.54z"/>
	<path class="st0" d="M87.007,0C38.954,0,0,38.954,0,87.007c0,48.053,38.954,87.007,87.007,87.007s87.007-38.954,87.007-87.007
		C174.014,38.954,135.06,0,87.007,0z M76.329,135.509c-4.956,0-8.987-4.049-8.987-9.025c0-4.975,4.032-9.021,8.987-9.021
		s8.987,4.047,8.987,9.021C85.316,131.461,81.284,135.509,76.329,135.509z M98.184,135.509c-4.956,0-8.988-4.049-8.988-9.025
		c0-4.975,4.033-9.021,8.988-9.021c4.956,0,8.989,4.047,8.989,9.021C107.173,131.461,103.141,135.509,98.184,135.509z
		 M113.77,113.576H62.808c-1.479,0-2.812-0.94-3.316-2.339L43.348,66.58h-3.814c-1.943,0-3.523-1.587-3.523-3.538
		c0-1.955,1.581-3.546,3.523-3.546l6.285,0.006c1.507,0,2.85,0.969,3.342,2.411l16.138,44.646h48.471
		c1.926,0,3.493,1.574,3.493,3.509C117.264,112.002,115.696,113.576,113.77,113.576z M133.838,64.146l-0.031,0.099l-13.1,36.079
		c-0.482,1.404-1.817,2.358-3.318,2.358H70.67c-1.501,0-2.843-0.966-3.337-2.405L54.264,64.293
		c-0.054-0.187-0.215-0.794-0.227-1.204c0-1.911,1.458-3.477,3.32-3.587l73.21-0.003c1.953,0.08,3.453,1.636,3.453,3.543
		C134.008,63.528,133.839,64.14,133.838,64.146z"/>
</g>
</svg>
