<?xml version="1.0" encoding="utf-8"?>
<!-- Generator: Adobe Illustrator 16.0.0, SVG Export Plug-In . SVG Version: 6.00 Build 0)  -->
<!DOCTYPE svg PUBLIC "-//W3C//DTD SVG 1.1//EN" "http://www.w3.org/Graphics/SVG/1.1/DTD/svg11.dtd">
<svg version="1.1" id="Layer_1" xmlns="http://www.w3.org/2000/svg" xmlns:xlink="http://www.w3.org/1999/xlink" x="0px" y="0px"
	 width="26px" height="25.99px" viewBox="3.491 -2.855 26 25.99" enable-background="new 3.491 -2.855 26 25.99"
	 xml:space="preserve">
<path d="M25.45,22.107c-2.277,0-6.486-6.292-6.486-6.292c-1.429,0.867-3.104,1.375-4.899,1.375c-5.233,0-9.477-4.24-9.477-9.471
	c0-5.234,4.24-9.475,9.474-9.476c5.236,0,9.474,4.24,9.474,9.476c0,1.795-0.509,3.47-1.375,4.901c0,0,6.307,4.191,6.307,6.469
	C28.467,20.46,26.821,22.107,25.45,22.107z M29.376,18.285c-0.692-1.951-5.857-5.858-5.857-5.858
	c0.73-1.463,1.115-3.075,1.115-4.708c0-5.829-4.742-10.573-10.57-10.575C8.234-2.854,3.491,1.89,3.491,7.719
	c0,5.827,4.744,10.568,10.574,10.568c1.634,0,3.244-0.383,4.706-1.114c0,0,3.92,5.257,5.86,5.86c0.544,0.17,1.176,0.097,1.553,0
	c1.461-0.378,2.833-2.023,3.194-3.196C29.49,19.467,29.565,18.814,29.376,18.285z"/>
<path d="M12.753,0.487c-0.3,0.042-0.508,0.32-0.465,0.621c0.043,0.3,0.322,0.508,0.621,0.465c0.209-0.03,5.128-0.673,6.811,4.136
	c0.079,0.225,0.291,0.368,0.519,0.368c0.059,0,0.12-0.011,0.181-0.031c0.287-0.101,0.437-0.414,0.337-0.699
	C18.778-0.307,12.814,0.478,12.753,0.487z"/>
</svg>
