<?xml version="1.0" encoding="utf-8"?>
<!-- Generator: Adobe Illustrator 16.0.0, SVG Export Plug-In . SVG Version: 6.00 Build 0)  -->
<!DOCTYPE svg PUBLIC "-//W3C//DTD SVG 1.1//EN" "http://www.w3.org/Graphics/SVG/1.1/DTD/svg11.dtd">
<svg version="1.1" id="Layer_1" xmlns="http://www.w3.org/2000/svg" xmlns:xlink="http://www.w3.org/1999/xlink" x="0px" y="0px"
	 width="22px" height="17.986px" viewBox="278.596 117.432 22 17.986" enable-background="new 278.596 117.432 22 17.986"
	 xml:space="preserve">
<g>
	<path d="M297.612,117.432H281.58l-2.983,3.432v0.16c0,1.062,0.684,1.967,1.645,2.327v12.067h18.711v-12.067
		c0.96-0.359,1.645-1.266,1.645-2.327v-0.16L297.612,117.432z M298.053,134.543h-16.914v-11.025c0.006,0,0.011,0.001,0.017,0.001
		c0.874,0,1.647-0.43,2.11-1.085c0.461,0.655,1.234,1.085,2.109,1.085s1.648-0.43,2.111-1.085c0.461,0.655,1.234,1.085,2.109,1.085
		s1.648-0.431,2.111-1.085c0.461,0.654,1.234,1.085,2.109,1.085s1.648-0.431,2.11-1.085c0.462,0.654,1.235,1.085,2.11,1.085
		c0.006,0,0.012-0.001,0.016-0.001V134.543z M298.038,122.643c-0.916,0-1.662-0.727-1.662-1.619h-0.897
		c0,0.893-0.745,1.619-1.661,1.619s-1.661-0.727-1.661-1.619h-0.897c0,0.893-0.746,1.619-1.662,1.619s-1.661-0.727-1.661-1.619
		h-0.897c0,0.893-0.746,1.619-1.662,1.619s-1.661-0.727-1.661-1.619h-0.897c0,0.893-0.746,1.619-1.661,1.619
		c-0.863,0-1.575-0.645-1.654-1.467l2.494-2.869h15.2l2.495,2.869C299.612,121.997,298.901,122.643,298.038,122.643z"/>
	<path d="M282.796,132.586h13.602v-7.431h-13.602V132.586z M283.694,126.03h11.805v5.68h-11.805V126.03z"/>
</g>
</svg>
