<?xml version="1.0" encoding="utf-8"?>
<!-- Generator: Adobe Illustrator 16.0.0, SVG Export Plug-In . SVG Version: 6.00 Build 0)  -->
<!DOCTYPE svg PUBLIC "-//W3C//DTD SVG 1.1//EN" "http://www.w3.org/Graphics/SVG/1.1/DTD/svg11.dtd">
<svg version="1.1" id="Layer_1" xmlns="http://www.w3.org/2000/svg" xmlns:xlink="http://www.w3.org/1999/xlink" x="0px" y="0px"
	 width="18.229px" height="9.563px" viewBox="7.265 6.519 18.229 9.563" enable-background="new 7.265 6.519 18.229 9.563"
	 xml:space="preserve">
<g>
	<path d="M17.262,16.078c0.462,0,0.651-0.282,0.646-0.638c-0.023-1.335,0.543-2.055,1.564-1.117c1.13,1.037,1.364,1.755,2.736,1.755
		c0.521,0,1.924,0,2.431,0c1.912,0,0.208-1.76-1.14-2.907c-1.28-1.091-1.34-1.116-0.237-2.429c1.369-1.63,3.159-3.729,1.575-3.729
		c-0.31,0-0.088,0-3.023,0c-0.587,0-0.63,0.314-0.838,0.768c-0.755,1.634-2.191,3.752-2.737,3.429
		c-0.571-0.339-0.31-1.485-0.266-3.475c0.011-0.525,0.008-0.887-0.866-1.072c-2.391-0.509-4.461,0.491-3.615,0.635
		c1.193,0.205,1.078,2.384,0.801,3.406c-0.484,1.78-2.306-1.41-3.065-2.999c-0.183-0.383-0.238-0.691-0.893-0.691
		c-0.358,0-1.94,0-2.472,0c-0.477,0-0.711,0.201-0.544,0.607c0.166,0.406,2.079,4.332,4.341,6.57
		C13.754,16.264,15.822,16.078,17.262,16.078z"/>
</g>
</svg>
