<?xml version="1.0" encoding="utf-8"?>
<!-- Generator: Adobe Illustrator 16.0.0, SVG Export Plug-In . SVG Version: 6.00 Build 0)  -->
<!DOCTYPE svg PUBLIC "-//W3C//DTD SVG 1.1//EN" "http://www.w3.org/Graphics/SVG/1.1/DTD/svg11.dtd">
<svg version="1.1" id="Layer_1" xmlns="http://www.w3.org/2000/svg" xmlns:xlink="http://www.w3.org/1999/xlink" x="0px" y="0px"
	 width="18.229px" height="13.829px" viewBox="8.484 2.64 18.229 13.829" enable-background="new 8.484 2.64 18.229 13.829"
	 xml:space="preserve">
<g>
	<path d="M26.713,4.278c-0.671,0.276-1.392,0.464-2.147,0.549c0.771-0.432,1.364-1.116,1.644-1.931
		c-0.723,0.399-1.522,0.69-2.374,0.847c-0.683-0.679-1.655-1.103-2.73-1.103c-2.065,0-3.739,1.562-3.739,3.49
		c0,0.274,0.032,0.54,0.097,0.797c-3.108-0.146-5.863-1.535-7.708-3.648C9.43,3.794,9.247,4.395,9.247,5.035
		c0,1.211,0.66,2.279,1.664,2.905c-0.613-0.019-1.19-0.176-1.695-0.437c0,0.014,0,0.028,0,0.043c0,1.692,1.29,3.102,3.001,3.424
		c-0.313,0.08-0.645,0.121-0.985,0.121c-0.241,0-0.476-0.021-0.704-0.061c0.477,1.385,1.857,2.395,3.494,2.424
		c-1.28,0.934-2.893,1.492-4.645,1.492c-0.303,0-0.601-0.016-0.893-0.049c1.655,0.992,3.62,1.57,5.732,1.57
		c6.88,0,10.641-5.32,10.641-9.933c0-0.15-0.004-0.303-0.011-0.452C25.577,5.591,26.212,4.977,26.713,4.278z"/>
</g>
</svg>
