<?xml version="1.0" encoding="utf-8"?>
<!-- Generator: Adobe Illustrator 19.1.0, SVG Export Plug-In . SVG Version: 6.00 Build 0)  -->
<svg version="1.1" id="Layer_1" xmlns="http://www.w3.org/2000/svg" xmlns:xlink="http://www.w3.org/1999/xlink" x="0px" y="0px"
	 viewBox="-270 362.3 46.1 46.1" style="enable-background:new -270 362.3 46.1 46.1;" xml:space="preserve">
<style type="text/css">
	.st0{clip-path:url(#SVGID_2_);}
</style>
<g>
	<g>
		<defs>
			<rect id="SVGID_1_" x="-270" y="362.3" width="69.7" height="69.7"/>
		</defs>
		<clipPath id="SVGID_2_">
			<use xlink:href="#SVGID_1_"  style="overflow:visible;"/>
		</clipPath>
		<path class="st0" d="M-264.1,362.3h34.2c3.2,0,5.9,2.7,5.9,5.9v34.2c0,3.3-2.7,5.9-5.9,5.9h-34.2c-3.3,0-5.9-2.7-5.9-5.9v-34.2
			C-270,365-267.3,362.3-264.1,362.3 M-236.4,367.5L-236.4,367.5c-1.1,0-2.1,0.9-2.1,2.1v5c0,1.1,0.9,2.1,2.1,2.1h5.2
			c1.1,0,2.1-0.9,2.1-2.1v-5c0-1.1-0.9-2.1-2.1-2.1H-236.4z M-229.1,381.8L-229.1,381.8h-4.1c0.4,1.3,0.6,2.6,0.6,4
			c0,7.7-6.4,13.9-14.3,13.9c-7.9,0-14.3-6.2-14.3-13.9c0-1.4,0.2-2.7,0.6-4h-4.2v19.5c0,1,0.8,1.8,1.8,1.8h32.1
			c1,0,1.8-0.8,1.8-1.8L-229.1,381.8L-229.1,381.8z M-246.9,376.3L-246.9,376.3c-5.1,0-9.3,4-9.3,9c0,4.9,4.1,9,9.3,9
			c5.1,0,9.2-4,9.2-9C-237.7,380.3-241.8,376.3-246.9,376.3"/>
	</g>
</g>
</svg>
