<?xml version="1.0" encoding="utf-8"?>
<!-- Generator: Adobe Illustrator 16.0.0, SVG Export Plug-In . SVG Version: 6.00 Build 0)  -->
<!DOCTYPE svg PUBLIC "-//W3C//DTD SVG 1.1//EN" "http://www.w3.org/Graphics/SVG/1.1/DTD/svg11.dtd">
<svg version="1.1" id="Layer_1" xmlns="http://www.w3.org/2000/svg" xmlns:xlink="http://www.w3.org/1999/xlink" x="0px" y="0px"
	 width="174px" height="174px" viewBox="0 0 174 174" enable-background="new 0 0 174 174" xml:space="preserve">
<g>
	<path fill="#0CB2B8" d="M43.146,118.244l87.718-0.012V62.414H43.152L43.146,118.244z M48.045,71.442
		c-0.902-0.73-1.429-1.836-1.429-3.022c0-2.148,1.739-3.897,3.875-3.897c1.24,0,2.102,0.579,2.504,0.924L87,93.938l34.029-28.509
		c0.715-0.594,1.571-0.906,2.482-0.906c2.137,0,3.874,1.749,3.874,3.897c0,1.188-0.536,2.303-1.472,3.058l-22.49,18.841
		l22.538,18.883c0.896,0.707,1.424,1.814,1.424,3.016c0,2.307-2.05,3.855-3.965,3.855c-0.892,0-1.722-0.301-2.399-0.872
		L97.374,95.389l-7.901,6.616c-1.325,1.116-3.62,1.118-4.949-0.007l-7.893-6.609l-23.659,19.818
		c-0.656,0.562-1.483,0.863-2.38,0.863c-1.916-0.001-3.97-1.549-3.975-3.85c0-1.203,0.542-2.321,1.487-3.07l22.478-18.832
		L48.045,71.442z"/>
	<path fill="#0CB2B8" d="M87,0C38.951,0,0,38.951,0,87s38.951,87,87,87s87-38.951,87-87S135.049,0,87,0z M138.606,119.248
		c0,3.744-3.022,6.789-6.737,6.789h-89.73c-3.719,0-6.744-3.045-6.744-6.789V61.417c0-3.742,3.025-6.788,6.744-6.788h89.73
		c3.715,0,6.737,3.045,6.737,6.788V119.248z"/>
</g>
</svg>
