<?xml version="1.0" encoding="utf-8"?>
<!-- Generator: Adobe Illustrator 16.0.0, SVG Export Plug-In . SVG Version: 6.00 Build 0)  -->
<!DOCTYPE svg PUBLIC "-//W3C//DTD SVG 1.1//EN" "http://www.w3.org/Graphics/SVG/1.1/DTD/svg11.dtd">
<svg version="1.1" id="Layer_1" xmlns="http://www.w3.org/2000/svg" xmlns:xlink="http://www.w3.org/1999/xlink" x="0px" y="0px"
	 width="52.186px" height="16px" viewBox="0 0 52.186 16" enable-background="new 0 0 52.186 16" xml:space="preserve">
<g>
	<polygon fill="#5A5A5A" points="18.384,15.771 22.607,15.771 25.25,0.27 21.025,0.27 	"/>
	<path fill="#5A5A5A" d="M33.77,6.493c-1.479-0.718-2.382-1.196-2.372-1.922c0-0.645,0.766-1.333,2.42-1.333
		c1.381-0.021,2.382,0.279,3.162,0.594l0.378,0.179l0.573-3.359C37.094,0.337,35.783,0,34.144,0c-4.175,0-7.115,2.103-7.142,5.115
		c-0.022,2.228,2.101,3.47,3.702,4.211c1.646,0.76,2.197,1.244,2.189,1.923c-0.011,1.039-1.313,1.515-2.527,1.515
		c-1.691,0-2.589-0.234-3.977-0.813l-0.544-0.246l-0.594,3.47c0.987,0.434,2.812,0.809,4.706,0.827c4.441,0,7.324-2.078,7.357-5.296
		C37.333,8.941,36.208,7.599,33.77,6.493z"/>
	<path fill="#5A5A5A" d="M48.765,0.284H45.5c-1.012,0-1.769,0.276-2.213,1.285l-6.273,14.207h4.437c0,0,0.726-1.91,0.89-2.33
		c0.484,0,4.795,0.007,5.411,0.007c0.126,0.543,0.515,2.323,0.515,2.323h3.921L48.765,0.284z M43.555,10.275
		c0.35-0.895,1.684-4.333,1.684-4.333c-0.025,0.041,0.347-0.897,0.56-1.479l0.286,1.336c0,0,0.81,3.7,0.979,4.477H43.555
		L43.555,10.275z"/>
	<path fill="#5A5A5A" d="M14.84,0.28L10.704,10.85l-0.44-2.146L8.782,1.58C8.526,0.599,7.784,0.306,6.867,0.271H0.054L0,0.594
		c1.657,0.401,3.14,0.979,4.438,1.7l3.756,13.463l4.47-0.005L19.316,0.28H14.84z"/>
</g>
</svg>
