<?xml version="1.0" encoding="utf-8"?>
<!-- Generator: Adobe Illustrator 16.0.0, SVG Export Plug-In . SVG Version: 6.00 Build 0)  -->
<!DOCTYPE svg PUBLIC "-//W3C//DTD SVG 1.1//EN" "http://www.w3.org/Graphics/SVG/1.1/DTD/svg11.dtd">
<svg version="1.1" id="Layer_1" xmlns="http://www.w3.org/2000/svg" xmlns:xlink="http://www.w3.org/1999/xlink" x="0px" y="0px"
	 width="110.023px" height="28px" viewBox="0 0 110.023 28" enable-background="new 0 0 110.023 28" xml:space="preserve">
<g>
	<path fill="#5A5A5A" d="M62.705,9.336H57.45v1.494c0,1.813-0.054,3.107-0.308,4.228c-0.279,1.188-0.772,2.121-0.987,2.508h-1.014
		v3.175h1.201v-2.066h6.282v2.066h1.2v-3.175h-1.121L62.705,9.336L62.705,9.336z M61.425,17.565H57.41
		c0.427-0.773,0.692-1.48,0.881-2.309c0.213-0.894,0.387-2.146,0.387-4.507v-0.308h2.747V17.565z"/>
	<path fill="#5A5A5A" d="M69.515,12.964c-0.521-0.494-1.161-0.667-1.841-0.667c-0.867,0-1.521,0.294-2.015,0.827
		c-0.601,0.653-0.895,1.626-0.895,2.48c0,0.947,0.347,1.814,0.895,2.389c0.693,0.719,1.48,0.826,2.228,0.826
		c1.229,0,1.934-0.412,2.428-0.986l-0.747-0.653c-0.667,0.627-1.359,0.68-1.733,0.68c-0.387,0-0.84-0.08-1.228-0.467
		c-0.374-0.388-0.601-1.026-0.612-1.614h4.48C70.488,14.924,70.288,13.697,69.515,12.964z M66.047,14.817
		c0.065-0.467,0.307-0.92,0.586-1.187c0.307-0.293,0.641-0.373,1.027-0.373c0.347,0,0.72,0.065,1.04,0.399
		c0.267,0.28,0.453,0.76,0.493,1.16L66.047,14.817L66.047,14.817z"/>
	<polygon fill="#5A5A5A" points="76.224,14.831 73.249,14.831 73.249,12.443 72.142,12.443 72.142,18.672 73.249,18.672 
		73.249,15.792 76.224,15.792 76.224,18.672 77.33,18.672 77.33,12.443 76.224,12.443 	"/>
	<path fill="#5A5A5A" d="M81.638,14.564h-1.12v-2.121H79.41v6.229h2.055c0.826,0,1.641-0.08,2.174-0.588
		c0.253-0.24,0.561-0.681,0.561-1.453c0-0.4-0.08-1-0.573-1.469C83.171,14.737,82.505,14.564,81.638,14.564z M82.611,17.445
		c-0.307,0.24-0.8,0.267-1.066,0.267h-1.026v-2.188h0.987c0.307,0,0.826,0.027,1.134,0.268c0.159,0.133,0.359,0.387,0.359,0.812
		C82.998,17.059,82.785,17.312,82.611,17.445z"/>
	<polygon fill="#5A5A5A" points="85.701,18.672 86.808,18.672 86.808,13.431 89.689,13.431 89.689,12.443 85.701,12.443 	"/>
	<polygon fill="#5A5A5A" points="95.162,13.07 92.201,16.672 92.201,12.443 91.094,12.443 91.094,18.672 92.201,18.672 
		92.201,18.032 95.162,14.431 95.162,18.672 96.269,18.672 96.269,12.443 95.162,12.443 	"/>
	<path fill="#5A5A5A" d="M6.486,6.449H4.361c-2.087,0-3.857,1.589-3.857,4.675c0,1.851,0.857,3.215,2.386,3.889l-2.851,5.159
		c-0.095,0.168,0,0.3,0.147,0.3h1.323c0.112,0,0.187-0.038,0.224-0.132l2.592-5.066h0.932v5.066c0,0.058,0.056,0.132,0.13,0.132
		h1.156c0.11,0,0.148-0.056,0.148-0.149V6.637C6.691,6.505,6.617,6.449,6.486,6.449z M5.256,14.077H4.473
		c-1.229,0-2.423-0.896-2.423-3.141c0-2.338,1.119-3.291,2.255-3.291h0.951V14.077z"/>
	<path fill="#5A5A5A" d="M13.492,11.098h-1.155c-0.093,0-0.149,0.074-0.149,0.13v3.571h-2.144v-3.571c0-0.093-0.037-0.13-0.13-0.13
		H8.757c-0.093,0-0.148,0.056-0.148,0.13v9.088c0,0.095,0.038,0.147,0.13,0.147h1.175c0.074,0,0.13-0.055,0.13-0.147v-4.338h2.144
		v4.338c0,0.095,0.057,0.147,0.149,0.147h1.155c0.093,0,0.131-0.073,0.131-0.147v-9.088C13.623,11.153,13.566,11.098,13.492,11.098z
		"/>
	<path fill="#5A5A5A" d="M39.728,19.23c-0.018-0.056-0.037-0.073-0.092-0.073c-0.094,0-0.597,0.204-1.324,0.204
		c-1.417,0-2.105-1.364-2.105-3.532c0-1.909,0.578-3.796,1.547-3.796c0.261,0,0.578,0.075,1.081,0.543
		c0.056,0.056,0.093,0.074,0.148,0.074c0.057,0,0.112-0.038,0.168-0.131l0.503-0.822c0.037-0.057,0.057-0.113,0.057-0.169
		c0-0.075-0.074-0.131-0.188-0.187c-0.764-0.393-1.286-0.468-1.732-0.468c-1.753,0-3.113,2.094-3.113,5.365
		c0,2.823,1.305,4.45,3.168,4.45c0.784,0,1.622-0.373,1.958-0.617c0.074-0.056,0.092-0.13,0.074-0.204L39.728,19.23z"/>
	<path fill="#5A5A5A" d="M31.776,15.323l2.236-4.095c0.038-0.057,0.019-0.131-0.056-0.131h-1.101c-0.316,0-0.429,0.112-0.54,0.355
		l-1.679,3.496c-0.092,0.206-0.186,0.336-0.279,0.393v-4.112c0-0.075-0.038-0.131-0.111-0.131h-1.212
		c-0.056,0-0.112,0.056-0.112,0.131v9.104c0,0.057,0.038,0.131,0.112,0.131h1.212c0.073,0,0.111-0.057,0.111-0.131V15.64
		c0.057,0.038,0.094,0.094,0.13,0.169l2.125,4.374c0.112,0.226,0.28,0.28,0.522,0.28h1.193c0.073,0,0.093-0.074,0.055-0.131
		L31.776,15.323z"/>
	<path fill="#5A5A5A" d="M21.097,19.288h-0.224c-0.28,0-0.354-0.113-0.354-0.338v-7.722c0-0.094-0.037-0.131-0.111-0.131h-3.729
		c-0.093,0-0.149,0.056-0.149,0.131v0.673c0,2.263-0.131,5.18-1.322,7.387h-0.411c-0.112,0-0.149,0.055-0.149,0.148v2.729
		c0,0.094,0.075,0.131,0.13,0.131h0.896c0.205,0,0.279-0.148,0.279-0.28v-1.552h3.988v1.701c0,0.074,0.056,0.131,0.129,0.131h0.951
		c0.112,0,0.224-0.094,0.224-0.28v-2.579C21.245,19.342,21.189,19.288,21.097,19.288z M19.083,19.288H16.38
		c0.951-1.627,1.323-3.459,1.454-5.704c0.038-0.485,0.057-0.991,0.057-1.309h1.192V19.288z"/>
	<path fill="#5A5A5A" d="M24.899,10.873c-2.013,0-2.907,2.543-2.907,5.31c0,2.823,1.267,4.506,3.131,4.506
		c0.913,0,1.715-0.354,2.125-0.616c0.074-0.037,0.093-0.094,0.074-0.169l-0.148-0.636c-0.02-0.074-0.056-0.111-0.149-0.111
		c-0.073,0-0.614,0.205-1.379,0.205c-1.435,0-2.105-1.252-2.105-2.896v-0.443c0,0,0.727,0.088,1.154,0.088h2.723v-0.785
		C27.415,12.425,26.389,10.873,24.899,10.873z M24.693,14.931c-0.429,0-1.099,0.073-1.099,0.073s0-0.279,0.038-0.58
		c0.167-1.589,0.559-2.393,1.211-2.393c0.597,0,0.969,0.822,1.062,2.263c0.02,0.299,0.02,0.636,0.02,0.636H24.693z"/>
	<path fill="#5A5A5A" d="M101.941,0H46.574v28h55.366l8.083-14L101.941,0z M100.291,25.644H49.206V2.364h51.086L107.032,14
		L100.291,25.644z"/>
</g>
</svg>
