<svg xmlns="http://www.w3.org/2000/svg" width="103" height="67.996" viewBox="12.075 5.412 103 67.996"><g fill="#34B0B6"><path fill-rule="evenodd" clip-rule="evenodd" d="M15.075 5.412h97a3 3 0 0 1 3 3v57a3 3 0 0 1-3 3h-97a3 3 0 0 1-3-3v-57a3 3 0 0 1 3-3z"/><path d="M64.078 73.408L54.07 66.413h20.015l-10.007 6.995z"/></g><path d="M79.04 36.43v2.635c13.735 5.387 17.43 5.533 16.697 9.02a.408.408 0 0 1-.396.322H70.56c-2.328 0-3.51-1.206-3.716-2.5-.14-.948-.15-4.282 0-5.454v-.02c.23-1.33 1.55-2.633 3.71-2.59h3.01V40.3H76.3v-2.33h.004v.002-2.236h-3.11c-.11.005-1.493.054-2.81.12-1.23.06-2.41.265-2.64.306a.32.32 0 0 0-.063.02c-.98.35-1.863.97-2.62 2.05-.41.55-.673 1.128-.783 1.733v.018c-.123.896-.35 5.89.35 7.31l.007.016c.596 1.08 1.35 1.85 2.56 2.47 1.666.92 2.945.73 9.044.73h.004c19.173 0 20.124 1.04 21.81-3.116.02-.05.03-.1.03-.154 0-3.996-.1-3.274-19.035-10.817zm-16.166 3.534c-.107-.605-.37-1.184-.78-1.734-.756-1.08-1.64-1.698-2.623-2.05a.34.34 0 0 0-.06-.02 23.45 23.45 0 0 0-2.64-.306c-1.31-.065-2.69-.114-2.8-.12h-4.04a.42.42 0 0 0-.15.03v10.098l2.74.137v-8.12l.985-.04h3.1c2.164-.05 3.482 1.26 3.713 2.59v.02c.148 1.17.14 4.5 0 5.45-.208 1.29-1.39 2.5-3.717 2.5H31.81a.406.406 0 0 1-.397-.326c-.714-3.394 2.772-3.624 15.623-8.603v-2.62c-17.865 7.088-17.96 6.47-17.96 10.385 0 .054.01.104.028.154 1.688 4.153 2.637 3.112 21.81 3.112 6.1 0 7.38.19 9.046-.728 1.212-.62 1.966-1.39 2.562-2.48a.08.08 0 0 0 .008-.015c.7-1.42.473-6.414.35-7.31-.003-.004-.003-.01-.006-.016zm-.917-5.98c.44.103.496.223.473.613-.02.355-.018.713-.015 1.07.005.37.01.754-.018 1.13a.352.352 0 0 0 .35.385h1.755a.365.365 0 0 0 .256-.106.374.374 0 0 0 .104-.26 82.593 82.593 0 0 1-.002-2.112c.002-.39.006-.78.006-1.174-.003-1.424-.272-1.722-1.71-1.877-1.858-.204-3.39-1.238-4.206-2.842-.813-1.6-.742-3.46.2-5.09.912-1.58 2.596-2.524 4.506-2.524 1.598 0 3.068.688 4.034 1.888.706.88 1.095 1.91 1.23 3.238h2.495c0-.06.005-.12 0-.184-.26-3.49-2.342-6.15-5.573-7.11-2.956-.876-5.642-.176-7.75 2.02-2.31 2.407-2.855 5.31-1.58 8.405.992 2.403 2.822 3.93 5.445 4.543z" fill="#FFF"/></svg>