<svg xmlns="http://www.w3.org/2000/svg" xmlns:xlink="http://www.w3.org/1999/xlink"><defs><path id="SVGID_1_" d="M-270 362.3h69.7V432H-270z"/></defs><symbol id="account--mobile" viewBox="260.596 119.425 19.979 19.988"><path d="M278.74 134.376l-.07-.02a25.4 25.4 0 0 1-2.486-.8c-1.82-.7-2.22-1.182-2.308-1.357-.146-.29-.053-.78.248-1.32a9.7 9.7 0 0 0 .402-.59l.086-.15a9.456 9.456 0 0 0 .92-2.07 10.46 10.46 0 0 0 .456-2.79 5.846 5.846 0 0 0-.403-2.33 5.716 5.716 0 0 0-1.215-1.89c-1.02-1.056-2.363-1.64-3.78-1.644-1.42.004-2.767.59-3.79 1.644a5.715 5.715 0 0 0-1.213 1.89 5.83 5.83 0 0 0-.403 2.33c.03.973.183 1.912.455 2.79a9.39 9.39 0 0 0 .92 2.07l.08.142a8.3 8.3 0 0 0 .38.553c.32.58.42 1.06.27 1.354-.09.173-.49.655-2.31 1.355a25.69 25.69 0 0 1-2.478.797l-.085.022a2.686 2.686 0 0 0-1.83 2.55v2.485h19.98v-2.487a2.685 2.685 0 0 0-1.836-2.55zm-10.563-1.733c.31-.614.205-1.408-.307-2.308-.14-.19-.25-.354-.355-.518l-.033-.054c-.82-1.312-1.262-2.83-1.312-4.507-.02-.67.093-1.322.335-1.938a4.71 4.71 0 0 1 1.005-1.564c.835-.863 1.926-1.34 3.072-1.343v-.14l.004.15c1.15.004 2.243.48 3.078 1.344.436.45.773.977 1.005 1.564.24.617.35 1.27.33 1.94-.05 1.676-.49 3.192-1.31 4.507l-.03.05a8.64 8.64 0 0 1-.35.5c-.52.907-.63 1.713-.32 2.328.18.364.562.71 1.164 1.063.44.252 1 .512 1.67.77.53.2 1.403.51 2.56.823.73.246 1.197.884 1.197 1.624v1.5h-18v-1.5c0-.73.46-1.375 1.138-1.607a28.08 28.08 0 0 0 2.622-.842 11.84 11.84 0 0 0 1.67-.77c.6-.35.982-.697 1.165-1.06z"/></symbol><symbol id="account" viewBox="6.37 -1.819 22.122 24"><path d="M6.787 22.18a.418.418 0 0 1-.417-.416c0-5.01 3.373-9.406 8.203-10.693l.47-.12-.415-.25c-1.913-1.18-3.25-3.575-3.25-5.832 0-3.153 2.588-6.68 6.052-6.68s6.052 3.527 6.052 6.68c0 2.256-1.336 4.655-3.25 5.833l-.413.254.46.125a11.08 11.08 0 0 1 8.202 10.694.42.42 0 0 1-.418.415H6.784zM17.43 11.538c-5.394 0-9.87 4.212-10.194 9.588l-.013.22H27.64l-.014-.22c-.323-5.376-4.8-9.588-10.195-9.588m0-12.52c-2.46 0-5.21 2.498-5.21 5.842s2.756 5.84 5.218 5.84 5.22-2.5 5.22-5.843S19.9-.985 17.438-.985"/></symbol><symbol id="badge" viewBox="0 0 4 15"><path d="M0 0l2 7.572L0 15h4V0z"/></symbol><symbol id="cart--mobile" viewBox="49.575 28.412 27 20.983"><path d="M60.59 45.236c-1.13 0-2.046.932-2.046 2.08 0 1.145.917 2.08 2.045 2.08 1.12 0 2.04-.936 2.04-2.08 0-1.148-.92-2.08-2.05-2.08zm0 3.182c-.6 0-1.085-.494-1.085-1.103s.486-1.104 1.084-1.104c.59 0 1.08.5 1.08 1.11s-.49 1.107-1.09 1.107zm6.254-3.182c-1.127 0-2.044.932-2.044 2.08 0 1.145.917 2.08 2.044 2.08 1.13 0 2.045-.936 2.045-2.08 0-1.148-.92-2.08-2.05-2.08zm0 3.182c-.598 0-1.084-.494-1.084-1.103s.486-1.104 1.084-1.104c.6 0 1.085.5 1.085 1.11s-.49 1.107-1.09 1.107zm4.462-6.348H57.06l-4.75-13.32a.485.485 0 0 0-.456-.336l-1.8-.002a.487.487 0 0 0-.48.492c0 .268.217.486.48.486h1.463l4.75 13.316a.48.48 0 0 0 .45.323h14.59c.26 0 .47-.22.47-.48a.478.478 0 0 0-.47-.48z"/><path d="M76.115 28.414H55.188a.487.487 0 0 0-.452.49c0 .028.02.123.04.197l3.736 10.44a.485.485 0 0 0 .455.338h13.375a.482.482 0 0 0 .453-.33l3.747-10.46c.013-.05.03-.147.032-.175a.485.485 0 0 0-.46-.49zM72.007 38.89H59.304l-3.402-9.5H75.41l-3.403 9.5z"/></symbol><symbol id="cart" viewBox="4.074 27.404 30 21.14"><path d="M15.442 42.182a3.188 3.188 0 0 0-3.183 3.184 3.185 3.185 0 0 0 3.18 3.18 3.185 3.185 0 0 0 3.18-3.18 3.187 3.187 0 0 0-3.187-3.184zm0 5.42a2.24 2.24 0 0 1-2.24-2.236 2.243 2.243 0 0 1 2.24-2.24 2.244 2.244 0 0 1 2.24 2.24 2.242 2.242 0 0 1-2.24 2.236zm13.935-5.42c-.85 0-1.65.332-2.25.933a3.155 3.155 0 0 0-.933 2.25 3.185 3.185 0 0 0 6.367 0 3.19 3.19 0 0 0-3.18-3.183zm0 5.42a2.24 2.24 0 0 1-2.24-2.237c0-.597.232-1.16.656-1.583a2.226 2.226 0 0 1 1.584-.656 2.246 2.246 0 0 1 2.24 2.24 2.24 2.24 0 0 1-2.24 2.236zm1.486-7.952l3.212-9.178h-3.67a.47.47 0 0 0 0 .943h2.342l-2.562 7.316-16.32.63-3.526-8.24-2.99-3.71-2.825.066a.47.47 0 0 0-.46.48c.006.26.215.474.482.46l2.36-.052 2.59 3.182 3.754 8.78 17.61-.673z"/></symbol><symbol id="cross" viewBox="280.615 118.437 16.971 16.971"><g fill-rule="evenodd" clip-rule="evenodd"><path d="M296.88 118.437l.706.707-16.264 16.264-.707-.707 16.264-16.26z"/><path d="M280.615 119.144l.707-.707 16.264 16.264-.707.71-16.27-16.26z"/></g></symbol><symbol id="help" viewBox="261.096 111.425 21 21"><path d="M271.596 111.425c-5.8 0-10.5 4.7-10.5 10.5s4.7 10.5 10.5 10.5 10.5-4.7 10.5-10.5-4.7-10.5-10.5-10.5zm0 19.95c-5.21 0-9.45-4.24-9.45-9.45s4.24-9.45 9.45-9.45 9.45 4.24 9.45 9.45-4.24 9.45-9.45 9.45z"/><path d="M271.168 127.24a.65.65 0 1 0 0 1.3.65.65 0 0 0 0-1.3zm.692-11.274a3.997 3.997 0 0 0-3.89 4.884l.023.09a.526.526 0 0 0 1.047-.09l-.016-.13a2.923 2.923 0 0 1 .76-2.838c1.108-1.108 3.043-1.108 4.152 0 .554.555.86 1.292.86 2.077s-.307 1.52-.86 2.07a3.03 3.03 0 0 1-1.138.71l-.08.03a2.6 2.6 0 0 0-2.076 2.453l-.002.966a.528.528 0 0 0 1.054 0v-.868c0-.415.16-.805.453-1.1.215-.214.484-.36.843-.442a4.013 4.013 0 0 0 2.86-3.83 3.994 3.994 0 0 0-3.99-3.992z"/></symbol><symbol id="logo--small" viewBox="0 0 87 40.318"><path d="M62.998 22.416v3.32c17.32 6.793 21.978 6.98 21.055 11.372a.517.517 0 0 1-.5.408H52.297c-2.937 0-4.425-1.52-4.687-3.15-.172-1.197-.185-5.4 0-6.88v-.022c.293-1.677 1.954-3.322 4.682-3.265h3.794v3.09h3.455v-2.94h.01v-2.82h-3.92c-.136.005-1.88.067-3.54.15-1.55.08-3.04.335-3.325.387a.34.34 0 0 0-.084.023c-1.237.445-2.352 1.223-3.31 2.586-.516.695-.845 1.423-.985 2.186v.024c-.155 1.13-.442 7.43.44 9.22 0 .01.006.013.01.02.75 1.372 1.7 2.344 3.23 3.123 2.1 1.16 3.71.92 11.4.92h.004c24.173 0 25.372 1.31 27.5-3.927a.52.52 0 0 0 .03-.193c0-5.033-.128-4.124-24.002-13.634zM42.616 26.87c-.136-.762-.466-1.49-.985-2.185-.95-1.363-2.06-2.14-3.3-2.584a.383.383 0 0 0-.08-.02 28.573 28.573 0 0 0-3.33-.38c-1.66-.083-3.4-.145-3.54-.15h-5.09a.508.508 0 0 0-.19.037v12.73l3.455.174V24.25l1.247-.05h3.908c2.73-.06 4.39 1.585 4.682 3.262v.023c.18 1.48.17 5.682 0 6.878-.268 1.63-1.75 3.15-4.69 3.15H3.45a.512.512 0 0 1-.502-.407c-.9-4.28 3.495-4.57 19.698-10.845v-3.3C.12 31.9 0 31.12 0 36.05c0 .07.013.133.036.196 2.128 5.238 3.326 3.926 27.5 3.926 7.69 0 9.306.24 11.406-.918 1.527-.78 2.48-1.75 3.23-3.123a.054.054 0 0 0 .01-.02c.88-1.79.595-8.08.44-9.21-.002-.01-.002-.012-.006-.02zm-1.156-7.537c.555.13.626.28.595.772-.027.447-.02.898-.018 1.347.005.468.012.953-.022 1.43a.434.434 0 0 0 .11.337.445.445 0 0 0 .33.14h2.213a.46.46 0 0 0 .454-.467 107.35 107.35 0 0 1-.003-2.663v-1.48c-.006-1.795-.347-2.17-2.157-2.37-2.345-.255-4.277-1.56-5.305-3.58-1.026-2.028-.937-4.37.25-6.427 1.157-1.99 3.28-3.184 5.69-3.184 2.01 0 3.865.87 5.084 2.38.89 1.11 1.38 2.41 1.55 4.08h3.146a1 1 0 0 0 0-.23c-.32-4.4-2.95-7.75-7.02-8.96-3.73-1.105-7.112-.22-9.773 2.55-2.91 3.034-3.597 6.697-1.99 10.595 1.25 3.03 3.56 4.956 6.867 5.728z" fill="#999B9E"/></symbol><symbol id="logo" viewBox="0 0 173 59.014"><path fill="#999B9E" d="M14.52 58.603V55.59a9.37 9.37 0 0 1-2.477 2.396c-.992.663-2.216.993-3.673.993a8.112 8.112 0 0 1-3.11-.62 7.688 7.688 0 0 1-2.665-1.83c-.774-.81-1.4-1.8-1.88-2.97C.24 52.402 0 51.062 0 49.56c0-1.506.233-2.842.7-4.006.467-1.165 1.087-2.152 1.863-2.963a7.677 7.677 0 0 1 2.682-1.83 8.247 8.247 0 0 1 3.127-.61c1.48 0 2.71.32 3.69.96.978.64 1.8 1.38 2.46 2.226V33.6H18.7v25.003h-4.18zm-.356-11.44a5.897 5.897 0 0 0-1.145-1.832 4.983 4.983 0 0 0-3.65-1.59 5.11 5.11 0 0 0-2 .4 4.868 4.868 0 0 0-1.66 1.146 5.386 5.386 0 0 0-1.13 1.833c-.275.72-.41 1.536-.41 2.45 0 .89.134 1.694.41 2.414a5.41 5.41 0 0 0 1.13 1.83A5.08 5.08 0 0 0 7.36 54.98c.625.273 1.29.41 1.997.41a4.94 4.94 0 0 0 1.98-.41 4.907 4.907 0 0 0 1.67-1.183 5.91 5.91 0 0 0 1.146-1.832c.282-.702.425-1.502.425-2.392 0-.89-.14-1.688-.425-2.397zm13.886 11.44h-4.178V40.52h4.18v4.074c.57-1.37 1.38-2.465 2.43-3.288 1.05-.823 2.375-1.2 3.973-1.13v4.384h-.24c-.913 0-1.746.148-2.5.444a5.263 5.263 0 0 0-1.952 1.336c-.548.595-.97 1.342-1.267 2.244-.297.903-.445 1.947-.445 3.134v6.885zm14.283-4.16c.936.787 2.078 1.18 3.425 1.18 1.027 0 1.917-.18 2.67-.547.755-.365 1.497-.902 2.228-1.61l2.43 2.158a10 10 0 0 1-3.1 2.467c-1.198.62-2.63.93-4.297.93-1.31 0-2.52-.23-3.65-.682a8.857 8.857 0 0 1-2.95-1.917c-.836-.822-1.49-1.81-1.97-2.963s-.72-2.44-.72-3.855c0-1.3.22-2.52.65-3.664a9.2 9.2 0 0 1 1.832-2.995 8.893 8.893 0 0 1 2.792-2.04c1.07-.5 2.26-.75 3.56-.75 1.44 0 2.7.26 3.785.786 1.082.524 1.985 1.23 2.703 2.123.72.89 1.262 1.93 1.63 3.113a12.67 12.67 0 0 1 .546 3.733 9.09 9.09 0 0 1-.07 1.13H40.55c.252 1.483.848 2.62 1.783 3.406zm7.467-6.15a7.033 7.033 0 0 0-.446-1.866 4.744 4.744 0 0 0-.924-1.507 4.43 4.43 0 0 0-1.387-1.01c-.538-.25-1.147-.377-1.833-.377-1.278 0-2.334.44-3.167 1.318-.834.88-1.342 2.03-1.524 3.45h9.28zm20.687 7.467a4.912 4.912 0 0 1-1.42 1.765c-.606.468-1.32.82-2.142 1.06-.822.24-1.7.36-2.637.36-1.3 0-2.62-.227-3.956-.685a12.657 12.657 0 0 1-3.716-2.02l1.85-2.81c.98.73 1.98 1.285 2.997 1.662 1.015.376 1.99.564 2.928.564.89 0 1.59-.176 2.08-.53.49-.354.74-.83.74-1.422v-.07c0-.342-.11-.638-.326-.89a2.97 2.97 0 0 0-.89-.667 7.874 7.874 0 0 0-1.302-.514c-.49-.15-1-.302-1.523-.462a38.286 38.286 0 0 1-2.004-.68 7.21 7.21 0 0 1-1.814-.97 4.91 4.91 0 0 1-1.32-1.473c-.34-.582-.513-1.305-.513-2.174v-.07c0-.842.166-1.61.496-2.292a5.144 5.144 0 0 1 1.37-1.746A6.162 6.162 0 0 1 61.44 40.6a8.283 8.283 0 0 1 2.52-.377c1.14 0 2.29.183 3.46.55 1.16.364 2.224.87 3.18 1.505l-1.64 2.943a13.855 13.855 0 0 0-2.64-1.25c-.89-.306-1.71-.46-2.465-.46-.8 0-1.425.17-1.87.514-.445.342-.667.777-.667 1.302v.068c0 .32.115.6.34.84.23.24.534.457.91.65.378.194.81.377 1.304.548.49.17 1 .34 1.524.5a22.43 22.43 0 0 1 1.985.72 8.25 8.25 0 0 1 1.797 1.01 4.99 4.99 0 0 1 1.32 1.453c.342.57.513 1.27.513 2.09v.07c0 .96-.173 1.79-.516 2.5zm16.783 0a4.89 4.89 0 0 1-1.42 1.765c-.606.468-1.32.82-2.142 1.06s-1.7.36-2.638.36c-1.302 0-2.62-.227-3.957-.685a12.682 12.682 0 0 1-3.716-2.02l1.85-2.81c.98.73 1.98 1.285 2.997 1.662 1.016.376 1.992.564 2.93.564.89 0 1.58-.176 2.07-.53.49-.354.737-.83.737-1.422v-.07a1.32 1.32 0 0 0-.32-.89 2.97 2.97 0 0 0-.89-.667 7.874 7.874 0 0 0-1.3-.514l-1.53-.463a38.002 38.002 0 0 1-2-.684 7.235 7.235 0 0 1-1.814-.976c-.53-.4-.97-.89-1.314-1.473-.342-.583-.513-1.306-.513-2.175v-.068c0-.844.164-1.61.496-2.294a5.123 5.123 0 0 1 1.37-1.748 6.133 6.133 0 0 1 2.054-1.095 8.272 8.272 0 0 1 2.52-.377c1.142 0 2.295.183 3.46.548a12.48 12.48 0 0 1 3.185 1.507l-1.65 2.945a13.883 13.883 0 0 0-2.64-1.25c-.89-.308-1.71-.46-2.464-.46-.8 0-1.42.17-1.867.512-.45.342-.67.777-.67 1.302v.068c0 .32.114.6.34.84.23.24.53.457.91.65.38.194.81.377 1.304.548.49.17 1 .338 1.524.497a22.96 22.96 0 0 1 1.988.72c.663.273 1.263.61 1.8 1.01a5.03 5.03 0 0 1 1.318 1.455c.344.57.516 1.268.516 2.09v.068c-.002.96-.174 1.792-.516 2.5z"/><path fill="#00BAC2" d="M104.738 58.072c-1.143.627-2.592.94-4.35.94-1.348 0-2.592-.244-3.733-.735a9.192 9.192 0 0 1-2.976-2.02A9.345 9.345 0 0 1 91 49.63a9.522 9.522 0 0 1 2.676-6.68 9.315 9.315 0 0 1 2.992-2.056c1.153-.5 2.404-.752 3.752-.752 1.713 0 3.134.286 4.265.856a10.08 10.08 0 0 1 2.962 2.26l-2.57 2.774a9.596 9.596 0 0 0-2.04-1.627c-.717-.422-1.603-.633-2.652-.633a4.75 4.75 0 0 0-2.09.46 5.05 5.05 0 0 0-1.645 1.252 5.946 5.946 0 0 0-1.078 1.832 6.3 6.3 0 0 0-.395 2.244c0 .822.13 1.587.395 2.294a5.607 5.607 0 0 0 1.11 1.85 5.4 5.4 0 0 0 1.714 1.25c.663.31 1.394.463 2.192.463.98 0 1.844-.21 2.586-.634a9.91 9.91 0 0 0 2.105-1.626l2.5 2.465a11.35 11.35 0 0 1-3.05 2.45zm23.856-4.846a9.482 9.482 0 0 1-2.02 2.996 9.534 9.534 0 0 1-3.066 2.038c-1.188.503-2.478.754-3.87.754-1.37 0-2.645-.245-3.82-.736a9.314 9.314 0 0 1-3.047-2.02 9.246 9.246 0 0 1-2.72-6.626c0-1.302.25-2.53.74-3.683a9.45 9.45 0 0 1 2.02-3.02 9.625 9.625 0 0 1 3.05-2.04c1.178-.5 2.46-.75 3.855-.75 1.394 0 2.678.24 3.854.73a9.367 9.367 0 0 1 3.05 2.02 9.247 9.247 0 0 1 2 2.998 9.367 9.367 0 0 1 .72 3.665c0 1.3-.246 2.52-.736 3.662zm-3.85-5.858a5.9 5.9 0 0 0-1.14-1.866 5.34 5.34 0 0 0-1.738-1.267c-.67-.308-1.412-.46-2.23-.46-.816 0-1.56.152-2.228.46a5.23 5.23 0 0 0-1.72 1.25c-.477.526-.84 1.136-1.09 1.833s-.373 1.444-.373 2.244c0 .8.136 1.558.408 2.278a5.65 5.65 0 0 0 1.14 1.867c.49.524 1.066.94 1.736 1.25s1.4.463 2.19.463c.84 0 1.59-.154 2.26-.463a5.285 5.285 0 0 0 2.807-3.082c.25-.696.374-1.445.374-2.244 0-.8-.135-1.55-.407-2.26zm22.396 11.235V55.59a9.356 9.356 0 0 1-2.477 2.396c-.99.663-2.216.993-3.673.993a8.116 8.116 0 0 1-3.11-.62 7.666 7.666 0 0 1-2.664-1.83c-.775-.81-1.402-1.8-1.88-2.97-.48-1.164-.717-2.5-.717-4.007 0-1.506.23-2.84.69-4.006.47-1.165 1.09-2.15 1.86-2.963a7.68 7.68 0 0 1 2.683-1.83 8.25 8.25 0 0 1 3.126-.618c1.48 0 2.71.32 3.69.96.977.637 1.8 1.38 2.46 2.224V33.6h4.18v25.003h-4.18zm-.358-11.44a5.88 5.88 0 0 0-1.145-1.832 4.987 4.987 0 0 0-3.652-1.59 5.1 5.1 0 0 0-1.996.4 4.85 4.85 0 0 0-1.66 1.147 5.388 5.388 0 0 0-1.13 1.833c-.27.72-.41 1.536-.41 2.45 0 .89.14 1.694.41 2.414.27.72.65 1.33 1.124 1.834a5.1 5.1 0 0 0 1.656 1.166 4.91 4.91 0 0 0 1.996.41c.684 0 1.344-.136 1.98-.41a4.897 4.897 0 0 0 1.672-1.183 5.91 5.91 0 0 0 1.144-1.83c.282-.706.425-1.506.425-2.396 0-.89-.145-1.688-.43-2.397zm14.642 7.28c.936.787 2.076 1.18 3.425 1.18 1.02 0 1.91-.18 2.67-.547.75-.365 1.49-.902 2.22-1.61l2.43 2.158a10.022 10.022 0 0 1-3.1 2.467c-1.2.62-2.633.93-4.3.93-1.302 0-2.52-.23-3.647-.682a8.872 8.872 0 0 1-2.947-1.917 8.902 8.902 0 0 1-1.97-2.963c-.478-1.154-.72-2.44-.72-3.855 0-1.3.22-2.52.652-3.664a9.215 9.215 0 0 1 1.83-2.995 8.893 8.893 0 0 1 2.792-2.04c1.072-.5 2.26-.75 3.562-.75 1.44 0 2.7.26 3.785.786a7.774 7.774 0 0 1 2.704 2.123c.72.89 1.263 1.93 1.63 3.113a12.67 12.67 0 0 1 .55 3.733c0 .182-.008.365-.02.547-.01.184-.03.376-.05.582h-13.29c.25 1.483.845 2.62 1.78 3.406zm7.466-6.15a7.072 7.072 0 0 0-.446-1.866 4.744 4.744 0 0 0-.924-1.507 4.446 4.446 0 0 0-1.388-1.01c-.536-.25-1.146-.377-1.832-.377-1.28 0-2.335.44-3.168 1.318-.834.88-1.342 2.03-1.524 3.45h9.282z"/><path d="M99.12 14.508v2.15c11.208 4.395 14.223 4.515 13.626 7.358a.334.334 0 0 1-.324.264H92.194c-1.9 0-2.864-.984-3.033-2.04-.11-.774-.12-3.495 0-4.45v-.017c.19-1.085 1.27-2.15 3.03-2.113h2.46v2.003h2.238v-1.9h.004v-1.825h-2.54c-.09.003-1.22.043-2.29.098a18.36 18.36 0 0 0-2.154.25.255.255 0 0 0-.054.015c-.8.29-1.522.8-2.14 1.68-.336.45-.55.92-.64 1.417v.015c-.1.73-.287 4.807.284 5.965l.006.01c.484.89 1.1 1.52 2.09 2.023 1.36.752 2.403.598 7.38.598 15.646 0 16.42.85 17.8-2.54a.36.36 0 0 0 .02-.126c0-3.26-.08-2.67-15.532-8.826zM85.928 17.39a3.342 3.342 0 0 0-.637-1.414c-.61-.882-1.33-1.386-2.14-1.672a.292.292 0 0 0-.05-.015 17.97 17.97 0 0 0-2.15-.25c-1.072-.06-2.2-.1-2.29-.1h-3.3a.334.334 0 0 0-.12.02v8.24l2.236.11v-6.62l.806-.03h2.53c1.766-.04 2.84 1.023 3.03 2.11v.014c.12.953.114 3.673 0 4.45-.17 1.052-1.132 2.04-3.033 2.04H60.58a.33.33 0 0 1-.325-.267c-.583-2.77 2.262-2.957 12.75-7.02v-2.14c-14.58 5.786-14.657 5.282-14.657 8.476a.36.36 0 0 0 .023.126c1.38 3.4 2.16 2.55 17.8 2.55 4.978 0 6.023.153 7.38-.596.99-.504 1.606-1.134 2.09-2.02a.054.054 0 0 0 .01-.014c.57-1.15.384-5.23.284-5.96l-.005-.01zm.23-6.78c-1.518-.167-2.768-1.012-3.433-2.32-.665-1.312-.606-2.83.162-4.16.746-1.292 2.12-2.062 3.678-2.062 1.304 0 2.503.562 3.292 1.54.576.718.893 1.56 1.003 2.643h2.037c0-.04.004-.09 0-.15-.212-2.85-1.912-5.01-4.548-5.8-2.42-.71-4.61-.14-6.33 1.65-1.89 1.97-2.33 4.34-1.29 6.86.81 1.96 2.3 3.21 4.44 3.71.36.084.404.18.384.5-.018.29-.014.58-.01.87.002.3.006.618-.016.926a.282.282 0 0 0 .285.313h1.432a.3.3 0 0 0 .207-.087.302.302 0 0 0 .088-.21 66.04 66.04 0 0 1-.002-1.725c.004-.32.007-.64.007-.96 0-1.16-.22-1.402-1.39-1.53z" fill="#999B9E"/></symbol><symbol id="map-marker" viewBox="281.1 116.422 15.992 21.002"><path d="M294.75 118.772a7.94 7.94 0 0 0-5.654-2.35c-2.136 0-4.144.835-5.653 2.35s-2.342 3.527-2.342 5.67c0 2.01 1.22 4.754 3.63 8.158a52.106 52.106 0 0 0 3.26 4.126c.1.115.18.203.24.27.03.032.05.06.08.082l.07.07a1.095 1.095 0 0 0 1.467-.016l.053-.055c.023-.024.05-.053.087-.096l.23-.25a51.354 51.354 0 0 0 3.26-4.123c2.406-3.405 3.625-6.15 3.625-8.16a7.98 7.98 0 0 0-2.343-5.67zm1.29 5.67c0 1.755-1.182 4.356-3.416 7.523a49.77 49.77 0 0 1-3.477 4.362l-.05.057-.052-.057a49.77 49.77 0 0 1-3.477-4.362c-2.234-3.167-3.414-5.77-3.414-7.524 0-1.85.72-3.6 2.032-4.92a6.888 6.888 0 0 1 4.91-2.03c1.854 0 3.6.725 4.91 2.04a6.92 6.92 0 0 1 2.033 4.92z"/><path d="M289.096 120.783c-1.936 0-3.51 1.58-3.51 3.524s1.574 3.524 3.51 3.524 3.51-1.58 3.51-3.52-1.574-3.52-3.51-3.52zm0 5.99a2.466 2.466 0 0 1 .005-4.93 2.46 2.46 0 0 1 2.46 2.464c0 .66-.255 1.28-.72 1.744a2.425 2.425 0 0 1-1.735.73z"/></symbol><symbol id="master-card" viewBox="0 0 50.125 30"><g fill="#5A5A5A"><path opacity=".8" d="M45.66 15.418l-.02-.126-.036-.122-.04-.117-.05-.1-.06-.097-.065-.08-.08-.072-.09-.06-.09-.04-.1-.026-.105-.01-.14.01-.125.02-.116.04-.115.05-.1.066-.1.08-.09.088-.085.096-.077.11-.07.118-.065.12-.056.133-.05.13-.04.132-.04.15-.03.143-.03.223.01.243.036.247.067.24.1.207.133.168.167.114.2.04.144-.01.13-.03.12-.036.118-.055.107-.06.1-.08.096-.085.087-.09.074-.104.07-.11.068-.115.05-.122.053-.125.04-.13.033-.137.028-.134.026-.14.017-.15v-.135l-.004-.14zm-8.556.85l-.034-.015-.05-.017-.058-.004-.066-.003h-.15l-.083.01-.08.01-.08.01-.076.002-.075.016-.067.012-.064.01-.05.01-.03.007-.04.015-.05.016-.055.02-.065.03-.06.03-.07.038-.066.042-.07.045-.066.055-.056.057-.056.064-.042.07-.04.08-.026.08-.015.09-.004.17.024.134.04.1.063.076.072.05.09.033.083.014.084.004.15-.005.146-.016.13-.025.117-.04.11-.04.098-.044.09-.05.08-.06.07-.056.06-.068.06-.06.042-.067.036-.06.022-.064.02-.06.016-.055.02-.142.022-.15.02-.14.01-.126-.01-.03zm-8.08-.765h-1.57l-.15.82h1.704l-.015-.26.01-.392z"/><path opacity=".8" d="M50.104 14.203l-.056-.76-.097-.748-.13-.733-.16-.724-.2-.71-.237-.697-.27-.67-.303-.66-.33-.648-.363-.622-.392-.612-.416-.585-.447-.56-.47-.546-.5-.52-.522-.5-.547-.47-.565-.443-.59-.42-.61-.39-.63-.36-.646-.33-.67-.302-.68-.27-.7-.237-.718-.21-.722-.165-.744-.13-.75-.097-.77-.057-.774-.02-.77.02-.764.057-.748.096-.74.13-.724.167-.713.203-.694.238-.682.27-.662.303-.644.33-.625.36-.61.39-.59.42-.57.444-.505.44.034.03.522.497.496.53.02.025h-2.14l-.69.814h3.51l.215.27.412.585.09.14h-4.94l-.48.815h5.922l.158.278.34.65.03.064h-6.98l-.354.815h7.693l.18.46.18.536h-8.42l-.25.814h8.905l.016.058.168.725.04.213h-9.33l-.157.815h9.61l.02.14.04-.056.104-.12.1-.11.106-.11.12-.102.112-.094.122-.09.128-.08.137-.077.135-.068.144-.06.14-.056.157-.05.157-.04.162-.036.17-.03.17-.024.186-.02.18-.01.19-.007.16.005.16.01.15.015.15.02.143.02.137.03.133.027.12.03.12.03.1.03.098.03.08.03.073.027.06.02.048.02.03.01-.254 1.404-.065-.035-.063-.03-.07-.036-.075-.036-.08-.024-.086-.03-.083-.03-.094-.03-.097-.023-.094-.023-.104-.02-.106-.016-.115-.01-.12-.01h-.374l-.13.01-.14.014-.143.025-.14.04-.143.055-.14.07-.144.09-.138.114-.13.13-.13.16-.12.188-.11.222-.107.252-.094.283-.083.324-.03.18-.02.176-.01.18.006.17.013.174.036.16.046.15.057.15.072.137.093.13.106.117.123.105.135.09.156.075.172.063.19.046.065.017.078.016.09.01.103.01.11.01h.247l.123-.01.133-.017.13-.024.13-.035.125-.04.125-.06.112-.06.106-.08.1-.094-.23 1.35-.03.026-.03.03-.04.035-.043.03-.055.04-.072.035-.08.036-.092.03-.11.033-.133.025-.15.02-.178.02-.197.013-.23.007-.257-.004-.28-.017-.23-.02-.234-.05-.233-.08-.23-.1-.225-.12-.213-.152-.2-.18-.19-.2-.168-.226-.14-.254-.02-.04H27.11l-.15.815h2.698l-.136.594-.112.394H20.7l.253.813h8.197l-.063.203-.27.686-.05.11h-7.43l.38.817h6.67l-.2.39-.346.605h-5.56l.51.815h4.52l-.29.41-.44.565-.014.012h-3l.715.82h1.56l-.22.23-.52.5-.033.03.51.44.564.446.588.42.608.39.626.363.645.33.662.3.68.27.693.236.713.204.725.167.74.133.747.098.764.06.77.02.774-.02.763-.058.75-.096.744-.13.723-.167.71-.203.7-.238.684-.27.668-.306.646-.33.63-.364.61-.39.588-.42.566-.444.55-.47.52-.503.5-.52.47-.55.446-.566.42-.59.39-.61.363-.63.33-.644.304-.666.267-.688.237-.697.2-.716.17-.723.13-.743.1-.75.056-.763.02-.777-.02-.767zM38.15 18.768h-1.27l.01-.207.006-.18v-.14l.01-.06-.064.08-.076.08-.09.07-.102.07-.106.065-.122.065-.125.062-.12.05-.14.043-.14.04-.14.022-.144.02-.146.01-.144.007-.14-.02-.134-.02-.184-.046-.16-.05-.145-.066-.13-.078-.11-.08-.096-.09-.085-.098-.07-.102-.06-.103-.048-.112-.04-.11-.023-.11-.014-.118-.015-.12-.01-.11v-.11l.01-.197.03-.187.046-.178.067-.174.075-.16.098-.143.106-.14.118-.125.13-.117.14-.107.145-.097.16-.08.155-.07.167-.06.167-.043.17-.03h.01l.026-.005.036-.006.05-.007.066-.013.07-.004.077-.01.08-.01.084-.01.09-.01.086-.006.088-.01.08-.004.073-.005h.248l.12.003.117.005h.11l.096.006.084.007.045.007h.02l.01-.035.017-.09.017-.104.01-.096-.02-.11-.046-.104-.065-.09-.077-.076-.09-.066-.108-.043-.11-.03-.12-.01-.144-.006-.152-.01h-.155l-.16.006-.168.01-.16.015-.163.016-.157.02-.15.02-.146.028-.13.026-.124.023-.11.03-.093.03-.07.038-.056.03.356-1.22.11-.045.12-.04.115-.037.12-.026.13-.027.125-.02.13-.02.14-.014.144-.01.144-.005.146-.006h.476l.17.005.176.006.143.01.15.026.158.038.163.046.155.06.157.07.15.088.14.097.13.11.118.124.103.135.074.154.055.16.033.172v.19l-.023.204-.533 2.67-.21 1.13zm3.495-4.094l-.147.05-.132.06-.116.077-.1.09-.093.087-.08.096-.066.1-.06.107-.05.112-.04.11-.03.11-.03.11-.02.11-.51 2.882h-1.43l.95-5.42h1.42l-.15.915.07-.1.077-.094.077-.096.07-.09.084-.08.08-.08.086-.07.09-.07.1-.06.1-.055.105-.05.11-.04.12-.036.123-.03.14-.015.14-.01-.227 1.302h-.125l-.195.01-.178.03-.16.04zm4.966 4.094h-1.4l.11-.562v-.05l-.08.1-.09.092-.083.08-.092.07-.09.066-.09.057-.092.05-.095.05-.096.035-.096.025-.096.024-.102.015-.1.014-.1.01-.1.008h-.11l-.262-.02-.243-.055-.222-.09-.2-.114-.18-.145-.16-.175-.14-.186-.124-.217-.103-.227-.08-.237-.06-.25-.04-.26-.014-.257.004-.264.027-.26.046-.258.08-.298.09-.285.106-.26.125-.242.134-.228.15-.202.158-.18.167-.165.18-.146.19-.127.19-.11.192-.086.2-.07.202-.046.2-.03.21-.01.146.003.14.018.134.026.12.035.12.04.1.043.103.057.09.053.08.06.08.066.062.07.06.06.05.067.045.066.04.06.034.062.352-1.99h1.376l-1.13 6.622z"/><path d="M24.126 15.428l.01-.127-.005-.12-.01-.11-.02-.1-.03-.09-.03-.085-.05-.076-.05-.07-.06-.06-.068-.05-.075-.05-.076-.04-.08-.03-.08-.02-.087-.015-.09-.01-.096.005-.09.013-.088.02-.088.03-.086.04-.076.043-.075.056-.066.06-.066.07-.062.076-.054.08-.046.086-.045.09-.037.103-.03.1-.02.106-.014.076zm-11.92.842l-.03-.012-.05-.01-.058-.012-.066-.004h-.15l-.08.004-.088.01-.08.012-.08.01-.077.01-.07.014-.063.017-.055.01-.04.01-.04.01-.06.02-.056.026-.065.03-.066.036-.07.034-.067.04-.07.05-.067.054-.06.06-.054.063-.05.063-.033.07-.03.08-.015.084-.007.17.028.137.05.1.068.077.076.05.09.032.08.012.082.005.15-.007.14-.015.13-.02.114-.03.1-.034.097-.045.09-.045.073-.054.066-.05.06-.06.05-.054.04-.06.036-.06.03-.064.025-.053.018-.053.04-.15.034-.166.03-.16.028-.134-.003-.023z"/><path d="M29.596 17.836l-.166-.227-.143-.26-.122-.287-.09-.31-.062-.34-.02-.358.01-.396.055-.42.04-.208.046-.203.05-.198.053-.19.056-.176.066-.178.06-.17.07-.155.07-.155.073-.15.087-.14.094-.13.05-.07-.054-.435-.133-.735-.167-.72-.2-.71-.232-.7-.27-.677-.3-.662-.332-.65-.357-.62-.39-.614-.418-.585-.446-.56-.47-.543-.496-.52-.522-.497-.54-.47-.567-.445-.585-.42-.607-.39-.626-.36-.642-.328-.662-.304-.686-.266L19.48.67l-.71-.2-.727-.167L17.3.17l-.75-.095-.76-.055-.77-.02-.772.02-.766.056-.75.095-.743.13-.725.17-.716.204-.7.238-.68.27-.67.305-.647.33-.63.356-.61.39-.587.42-.567.447-.55.47-.52.496-.5.522-.47.546-.446.56-.42.59-.39.613-.364.623-.326.648-.303.663-.27.68-.234.7-.202.708-.165.724-.134.734-.097.75-.055.76-.02.77.02.776.056.765.096.75.135.743.166.723.202.712.237.7.27.683.3.666.33.647.366.63.39.61.42.588.447.565.47.546.503.52.52.502.545.47.566.444.59.418.61.393.627.362.65.33.67.302.68.27.7.237.715.202.726.165.743.133.75.097.765.056.772.02.77-.02.765-.057.75-.095.74-.13.724-.165.714-.203.696-.238.682-.27.664-.304.64-.33.63-.362.605-.39.588-.42.566-.444.54-.47.524-.504.496-.52.47-.55.446-.565.415-.584.39-.61.36-.63.337-.645.3-.67.267-.685.233-.7.2-.712.167-.725.01-.05-.11-.115zm-21.42.932H6.802l.87-4.963h-.055l-2.06 4.963H4.003l-.01-.207-.036-.55-.045-.78-.05-.9-.05-.9-.046-.795-.035-.577-.01-.243h-.07l-.84 4.96H1.43l1.15-6.644h2.39l.228 3.94 1.654-3.94h2.5l-1.175 6.64zm5.07 0h-1.274l.035-.207.025-.18.02-.14.022-.075-.07.08-.082.08-.096.077-.106.07-.122.07-.126.06-.132.063-.136.05-.146.045-.147.034-.14.03-.15.02-.145.01-.147.01-.14-.02-.138-.02-.176-.05-.166-.043-.14-.065-.127-.08-.11-.08-.1-.09-.08-.095-.07-.104-.064-.103-.05-.113-.04-.11-.03-.11-.02-.115-.015-.12-.01-.11v-.11l.015-.2.03-.187.05-.177.06-.174.082-.16.09-.148.107-.143.12-.124.125-.115.14-.106.143-.098.152-.08.162-.07.165-.056.174-.046.177-.03h.01l.028-.005.036-.01.056-.004.06-.012.07-.005.075-.01.085-.01.087-.01.084-.01.09-.006.082-.01.08-.005.077-.01.07-.004h.18l.12.006.11.007h.117l.092.003.07.008.05.005h.014l.01-.034.032-.09.025-.107.01-.097-.02-.11-.047-.1-.06-.09-.08-.078-.098-.065-.106-.044-.124-.03-.13-.01-.144-.007-.15-.007h-.155l-.164.004-.167.01-.163.015-.16.013-.157.02-.15.02-.148.025-.13.027-.124.023-.11.03-.09.03-.068.034-.055.03.36-1.22.11-.043.114-.04.12-.035.122-.027.122-.027.13-.02.13-.02.133-.01.14-.01.147-.006.15-.003h.487l.178.005.177.006.14.01.153.026.156.037.164.048.158.06.155.07.15.086.144.094.125.11.11.123.103.138.074.152.05.16.03.17v.19l-.03.203-.51 2.67-.204 1.124zm2.465-3.766l.03.066.04.065.05.066.1.09.12.072.14.065.15.056.168.05.167.056.168.06.163.064.15.086.14.106.128.124.108.16.08.19.053.23.02.27-.02.32-.038.237-.06.21-.08.19-.1.167-.117.144-.13.125-.14.11-.157.096-.162.08-.166.07-.17.05-.177.04-.17.03-.17.012-.166.01-.157.005h-.218l-.205-.006h-.18l-.168-.003-.15-.004-.137-.01-.122-.01-.115-.015-.106-.006-.098-.02-.094-.013-.086-.023-.086-.02-.08-.03-.083-.03-.086-.03.22-1.12.047.01.056.017.07.02.088.02.09.02.103.02.11.027.123.02.125.02.13.02.14.017.14.017.147.006.148.005h.143l.147-.003.147-.03.118-.04.09-.06.072-.07.05-.07.04-.08.026-.082.02-.074.01-.144-.044-.13-.084-.104-.126-.084-.152-.077-.177-.08-.2-.07-.196-.08-.2-.095-.194-.106-.176-.135-.162-.152-.123-.19-.09-.23-.046-.27.003-.324.025-.2.035-.187.05-.173.06-.162.082-.152.09-.13.107-.126.126-.11.144-.097.163-.08.182-.077.2-.055.23-.048.25-.036.27-.023.3-.003h.183l.172.003.155.004.145.005.126.01.12.01.1.01.09.01.083.01.07.018.067.01.063.01.05.01.046.006.042.01.04.005-.257 1.144-.072-.004-.07-.01-.066-.01-.065-.01-.06-.01-.063-.014-.067-.01-.07-.01-.07-.01-.086-.006-.09-.006-.095-.004h-.107l-.115.007-.13.01-.147.01-.1.017-.097.016-.086.03-.078.03-.07.035-.066.04-.05.05-.045.048-.03.056-.026.056-.01.06v.06l.012.06zm4.62 3.532l-.03.026-.03.02-.035.02-.036.02-.037.016-.04.015-.046.02-.045.02-.05.02-.052.01-.06.01-.06.01-.067.012-.076.01-.08.01-.09.01h-.384l-.204-.014-.178-.022-.166-.027-.136-.037-.117-.046-.094-.052-.087-.065-.067-.067-.05-.07-.036-.086-.025-.09-.015-.094-.004-.108v-.11l.015-.115.018-.125.967-5.52h1.4l-.208 1.224h.845l-.184 1.143-.89-.023-.487 2.82-.01.104.026.087.05.064.064.06.09.03.1.03.113.02.12.01.113-.003.1-.01.092-.013.08-.02.063-.02.05-.017.03-.01.01-.01-.178.94zm4.66-.052l-.08.04-.08.042-.08.03-.073.03-.077.023-.08.025-.08.02-.087.017-.09.01-.103.01-.106.01-.115.01-.136.004h-.14l-.155.004h-.168l-.248-.004-.255-.025-.255-.033-.253-.06-.25-.076-.237-.097-.228-.13-.212-.145-.197-.17-.175-.207-.147-.23-.123-.268-.085-.3-.055-.34-.016-.372.022-.415.02-.165.03-.186.04-.2.057-.212.08-.218.09-.22.114-.222.143-.212.16-.2.2-.19.22-.173.253-.152.292-.126.33-.09.363-.06.41-.027.197.004.21.02.21.035.21.05.2.078.198.093.182.12.166.143.15.17.127.203.102.23.07.268.04.303.005.347-.034.384-.08.426-.023.31h-3.28l-.01.06-.006.09.01.098.02.096.036.1.04.09.056.098.06.085.07.086.077.072.08.077.092.062.09.057.1.043.1.038.104.02.13.023.122.014.13.016.133.01.132.008h.135l.13-.005.14-.012.133-.02.137-.023.143-.03.136-.05.143-.054.146-.06.14-.084.146-.087-.2 1.235zm3.95-4.178l-.032.132-.025.11-.02.092-.016.06-.005.022h-.005l-.018-.005-.02-.006-.024-.01h-.027l-.026-.01-.02-.006h-.013l-.196.015-.17.024-.156.04-.14.047-.12.057-.113.06-.09.077-.08.077-.07.087-.06.09-.054.098-.04.1-.032.107-.025.105-.026.106-.02.11-.485 2.88h-1.46l.948-5.418h1.453l-.184.915.076-.1.077-.1.07-.093.076-.086.075-.083.072-.076.08-.08.086-.062.094-.06.094-.05.106-.052.115-.04.12-.03.136-.026.14-.02.157-.01h.037l.033.006.042.005h.032l.037.005.026.006.02.007h.007l-.01.014-.024.035-.04.06-.046.076-.05.085-.05.097-.05.1-.04.095-.043.14-.045.143-.036.14z"/></g></symbol><symbol id="msg-empty-cart" viewBox="0 0 174.014 174.014"><style>.st0{fill:#31b1b5}</style><path class="st0" d="M73.136 95.596h41.787L125.46 66.58H62.6l10.536 29.016zm3.194 28.944a1.944 1.944 0 0 0 0 3.888 1.944 1.944 0 0 0 0-3.888zm21.854 0a1.944 1.944 0 0 0 0 3.888 1.945 1.945 0 1 0 0-3.888z"/><path class="st0" d="M87.007 0C38.954 0 0 38.954 0 87.007c0 48.053 38.954 87.007 87.007 87.007s87.007-38.954 87.007-87.007C174.014 38.954 135.06 0 87.007 0zM76.33 135.51c-4.957 0-8.988-4.05-8.988-9.026 0-4.975 4.032-9.02 8.987-9.02s8.98 4.046 8.98 9.02c0 4.977-4.03 9.025-8.99 9.025zm21.854 0c-4.956 0-8.988-4.05-8.988-9.026 0-4.975 4.033-9.02 8.988-9.02 4.956 0 8.99 4.046 8.99 9.02 0 4.977-4.033 9.025-8.99 9.025zm15.586-21.934H62.808a3.54 3.54 0 0 1-3.316-2.34L43.348 66.58h-3.814a3.534 3.534 0 0 1-3.523-3.538c0-1.955 1.59-3.546 3.53-3.546l6.288.006c1.507 0 2.85.97 3.34 2.41L65.3 106.56h48.47a3.504 3.504 0 0 1 3.493 3.508 3.504 3.504 0 0 1-3.493 3.508zm20.068-49.43l-.03.1-13.1 36.078a3.51 3.51 0 0 1-3.32 2.358H70.67a3.54 3.54 0 0 1-3.337-2.405l-13.07-35.984c-.053-.187-.214-.794-.226-1.204 0-1.92 1.458-3.48 3.32-3.59l73.21-.01c1.953.08 3.453 1.635 3.453 3.542-.012.485-.18 1.097-.182 1.103z"/></symbol><symbol id="msg-error" viewBox="50.076 -24.587 173.984 173.984"><path fill="#FA6871" d="M173.1-24.587h-72.065l-50.96 50.96v72.065l50.96 50.96H173.1l50.96-50.96V26.372l-50.96-50.96zM170.14 87.8a5.435 5.435 0 0 1-.024 7.684c-2.09 2.078-5.52 2.08-7.627-.01l-25.43-25.412-25.42 25.4a5.364 5.364 0 0 1-3.83 1.59 5.385 5.385 0 0 1-3.826-1.587 5.433 5.433 0 0 1-1.58-3.834 5.39 5.39 0 0 1 1.57-3.82l25.42-25.4-25.41-25.394a5.383 5.383 0 0 1-1.578-3.832c0-1.433.57-2.83 1.57-3.83a5.435 5.435 0 0 1 7.65-.02l25.43 25.415 25.41-25.397c2.11-2.1 5.54-2.104 7.65-.017a5.395 5.395 0 0 1 1.6 3.85 5.39 5.39 0 0 1-1.57 3.814L144.73 62.4l25.41 25.4z"/></symbol><symbol id="msg-success" viewBox="49.568 -24.095 174.014 174.014"><path fill="#34B0B6" d="M136.575-24.095c-48.053 0-87.007 38.954-87.007 87.007s38.954 87.007 87.007 87.007 87.007-38.96 87.007-87.01-38.954-87.01-87.007-87.01zm43.95 67.073l-52.412 52.44a5.31 5.31 0 0 1-3.73 1.53h-.002a5.24 5.24 0 0 1-3.71-1.515l-25.48-25.5a5.264 5.264 0 0 1-1.545-3.73 5.22 5.22 0 0 1 1.56-3.74 5.186 5.186 0 0 1 3.715-1.535c1.4 0 2.72.545 3.717 1.532l21.755 21.77 48.683-48.707a5.3 5.3 0 0 1 3.73-1.53c1.4 0 2.76.56 3.732 1.536 2.047 2.04 2.05 5.39 0 7.44z"/></symbol><symbol id="pencil" viewBox="0 0 12 12.017"><g fill="#434A53"><path d="M11.486.498c-.666-.663-1.82-.664-2.483 0L.12 9.4a.43.43 0 0 0-.12.3v1.88a.414.414 0 0 0 .413.43h1.88l.03-.002a.408.408 0 0 0 .28-.12l8.675-8.693.207-.208c.332-.333.515-.775.515-1.245 0-.47-.183-.91-.514-1.244zM.826 11.18V9.863c.742-.742 4.712-4.72 7.045-7.06L9.19 4.12l-7.05 7.063-1.313-.003zm9.31-8.01l-.366.365-1.315-1.317.365-.367 1.316 1.32zm.583-.586L9.4 1.267l.18-.182c.34-.335.987-.335 1.32-.002a.92.92 0 0 1 .27.658.93.93 0 0 1-.27.66l-.182.19z"/><path fill-rule="evenodd" clip-rule="evenodd" d="M0 10.017h2v2H0v-2z"/></g></symbol><symbol id="plus" viewBox="276.576 122.413 11 11"><g fill-rule="evenodd" clip-rule="evenodd"><path d="M276.576 127.413h11v1h-11v-1z"/><path d="M282.576 122.413v11h-1v-11h1z"/></g></symbol><symbol id="search--mobile" viewBox="269.086 115.419 19.98 19.987"><path d="M288.92 134.56l-5.987-5.992.043-.05a7.913 7.913 0 0 0 1.933-5.184c0-4.365-3.55-7.915-7.92-7.915a7.86 7.86 0 0 0-5.595 2.31 7.865 7.865 0 0 0-2.317 5.6c0 4.36 3.55 7.91 7.91 7.91a7.906 7.906 0 0 0 5.18-1.93l.053-.046 5.988 5.994a.5.5 0 0 0 .354.14.5.5 0 0 0 .352-.14.5.5 0 0 0-.003-.705zm-14.615-4.85a6.914 6.914 0 0 1-3.68-3.684 6.878 6.878 0 0 1-.544-2.69 6.896 6.896 0 0 1 2.03-4.893 6.875 6.875 0 0 1 4.89-2.023 6.99 6.99 0 0 1 2.69.54 6.886 6.886 0 0 1 2.2 1.483 6.896 6.896 0 0 1 2.03 4.892 6.887 6.887 0 0 1-2.026 4.892 6.886 6.886 0 0 1-2.2 1.482 6.955 6.955 0 0 1-5.38 0z"/></symbol><symbol id="search" viewBox="3.491 -2.855 26 25.99"><path d="M25.45 22.107c-2.277 0-6.486-6.292-6.486-6.292a9.416 9.416 0 0 1-4.9 1.375 9.474 9.474 0 0 1-.003-18.947 9.47 9.47 0 0 1 9.48 9.477 9.45 9.45 0 0 1-1.37 4.9s6.31 4.19 6.31 6.47c0 1.37-1.65 3.014-3.02 3.014zm3.926-3.822c-.692-1.95-5.857-5.858-5.857-5.858a10.55 10.55 0 0 0 1.11-4.707c0-5.83-4.748-10.576-10.57-10.578C8.23-2.854 3.49 1.89 3.49 7.72c0 5.826 4.745 10.567 10.575 10.567 1.634 0 3.244-.383 4.706-1.114 0 0 3.92 5.257 5.86 5.86.55.17 1.18.097 1.56 0 1.46-.378 2.836-2.023 3.197-3.196.11-.37.187-1.023-.002-1.552z"/><path d="M12.753.487a.547.547 0 1 0 .156 1.086c.2-.03 5.12-.673 6.81 4.136a.55.55 0 0 0 .7.33.55.55 0 0 0 .33-.7c-1.98-5.65-7.94-4.866-8-4.86z"/></symbol><symbol id="shop" viewBox="278.596 117.432 22 17.986"><path d="M297.612 117.432H281.58l-2.983 3.432v.16c0 1.062.684 1.967 1.645 2.327v12.07h18.71v-12.07c.96-.35 1.646-1.26 1.646-2.32v-.16l-2.986-3.43zm.44 17.11H281.14V123.52h.016a2.58 2.58 0 0 0 2.11-1.084c.46.655 1.234 1.085 2.11 1.085s1.647-.43 2.11-1.08c.46.658 1.234 1.088 2.11 1.088s1.647-.43 2.11-1.085c.46.654 1.234 1.085 2.11 1.085s1.647-.433 2.11-1.087a2.58 2.58 0 0 0 2.11 1.086h.015v11.024zm-.014-11.9c-.916 0-1.662-.726-1.662-1.618h-.897c0 .893-.75 1.62-1.67 1.62s-1.66-.728-1.66-1.62h-.9c0 .893-.746 1.62-1.662 1.62s-1.66-.728-1.66-1.62h-.898c0 .893-.747 1.62-1.663 1.62s-1.66-.728-1.66-1.62h-.898c0 .893-.748 1.62-1.66 1.62-.866 0-1.578-.646-1.657-1.468l2.493-2.87h15.2l2.494 2.87c-.082.82-.793 1.467-1.656 1.467z"/><path d="M282.796 132.586h13.602v-7.43h-13.602v7.43zm.898-6.556H295.5v5.68h-11.806v-5.68z"/></symbol><symbol id="soc-fb" viewBox="13.215 1.519 9.1 17.008"><path d="M19.135 8.13V5.347h.003a.568.568 0 0 1-.003-.06c0-.358.324-.65.724-.65h2.45v-3.12h-3.62v.01c-1.87.13-3.34 1.536-3.34 3.25v3.35h-2.14v3.12h2.14v7.278h3.78v-7.652h2.46l.38-2.745h-2.84z"/></symbol><symbol id="soc-ig" viewBox="-270 362.3 46.1 46.1"><style>.st0{clip-path:url(#SVGID_2_)}</style><clipPath id="SVGID_2_"><use xlink:href="#SVGID_1_" overflow="visible"/></clipPath><path class="st0" d="M-264.1 362.3h34.2c3.2 0 5.9 2.7 5.9 5.9v34.2c0 3.3-2.7 5.9-5.9 5.9h-34.2c-3.3 0-5.9-2.7-5.9-5.9v-34.2c0-3.2 2.7-5.9 5.9-5.9m27.7 5.2c-1.1 0-2.1.9-2.1 2.1v5c0 1.1.9 2.1 2.1 2.1h5.2c1.1 0 2.1-.9 2.1-2.1v-5c0-1.1-.9-2.1-2.1-2.1h-5.2zm7.3 14.3h-4.1c.4 1.3.6 2.6.6 4 0 7.7-6.4 13.9-14.3 13.9s-14.3-6.2-14.3-13.9c0-1.4.2-2.7.6-4h-4.2v19.5c0 1 .8 1.8 1.8 1.8h32.1c1 0 1.8-.8 1.8-1.8v-19.5zm-17.8-5.5c-5.1 0-9.3 4-9.3 9 0 4.9 4.1 9 9.3 9 5.1 0 9.2-4 9.2-9s-4.1-9-9.2-9"/></symbol><symbol id="soc-tw" viewBox="8.484 2.64 18.229 13.829"><path d="M26.713 4.278a7.99 7.99 0 0 1-2.147.55c.77-.433 1.364-1.117 1.644-1.932a7.83 7.83 0 0 1-2.374.847 3.865 3.865 0 0 0-2.73-1.103c-2.065 0-3.74 1.562-3.74 3.49 0 .274.033.54.098.797C14.356 6.78 11.6 5.392 9.756 3.28a3.267 3.267 0 0 0-.51 1.755c0 1.21.66 2.28 1.665 2.905a3.956 3.956 0 0 1-1.69-.437v.043c0 1.692 1.29 3.102 3 3.424a4.07 4.07 0 0 1-1.69.06c.48 1.385 1.86 2.395 3.5 2.424a7.865 7.865 0 0 1-4.644 1.492c-.303 0-.6-.016-.893-.05a11.11 11.11 0 0 0 5.73 1.57c6.88 0 10.64-5.32 10.64-9.932 0-.15-.002-.303-.01-.452a7.32 7.32 0 0 0 1.868-1.804z"/></symbol><symbol id="soc-vk" viewBox="7.265 6.519 18.229 9.563"><path d="M17.262 16.078c.462 0 .65-.282.646-.638-.023-1.335.543-2.055 1.564-1.117 1.13 1.037 1.364 1.755 2.736 1.755h2.43c1.913 0 .21-1.76-1.14-2.907-1.28-1.09-1.34-1.11-.236-2.42 1.37-1.63 3.16-3.73 1.575-3.73h-3.023c-.587 0-.63.316-.838.77-.755 1.634-2.19 3.75-2.737 3.43-.58-.34-.31-1.485-.27-3.475.01-.525.01-.887-.87-1.072-2.39-.51-4.46.49-3.617.636 1.193.204 1.08 2.383.8 3.405-.483 1.78-2.305-1.41-3.064-3-.183-.382-.238-.69-.893-.69H7.86c-.477 0-.71.2-.544.607.163.407 2.076 4.333 4.34 6.57 2.092 2.074 4.16 1.888 5.6 1.888z"/></symbol><symbol id="subscribe" viewBox="0 0 174 174"><g fill="#0CB2B8"><path d="M43.146 118.244l87.718-.012V62.414H43.152l-.006 55.83zm4.9-46.802a3.876 3.876 0 0 1-1.43-3.022c0-2.148 1.74-3.897 3.875-3.897 1.24 0 2.11.58 2.51.924l34 28.49 34.03-28.508a3.84 3.84 0 0 1 2.48-.91c2.14 0 3.88 1.75 3.88 3.89a3.917 3.917 0 0 1-1.472 3.058l-22.49 18.84 22.535 18.89c.9.707 1.427 1.814 1.427 3.016 0 2.307-2.05 3.855-3.966 3.855-.89 0-1.72-.3-2.4-.87L97.38 95.39l-7.9 6.615c-1.326 1.116-3.62 1.118-4.95-.007l-7.893-6.61-23.658 19.82a3.614 3.614 0 0 1-2.38.862c-1.92 0-3.97-1.55-3.98-3.85 0-1.203.54-2.32 1.487-3.07l22.48-18.832-22.54-18.876z"/><path d="M87 0C38.95 0 0 38.95 0 87s38.95 87 87 87 87-38.95 87-87S135.05 0 87 0zm51.606 119.248c0 3.744-3.022 6.79-6.737 6.79H42.14c-3.72 0-6.745-3.046-6.745-6.79v-57.83c0-3.743 3.025-6.79 6.744-6.79h89.73c3.71 0 6.73 3.046 6.73 6.79v57.83z"/></g></symbol><symbol id="visa" viewBox="0 0 52.186 16"><path d="M18.384 15.77h4.223L25.25.27h-4.225zM33.77 6.493c-1.48-.718-2.382-1.196-2.372-1.922 0-.64.766-1.33 2.42-1.33a7.75 7.75 0 0 1 3.162.6l.378.18.573-3.36C37.1.34 35.79 0 34.15 0c-4.175 0-7.115 2.103-7.142 5.115-.022 2.228 2.1 3.47 3.702 4.21 1.646.76 2.197 1.245 2.19 1.924-.012 1.03-1.314 1.51-2.528 1.51-1.69 0-2.59-.24-3.978-.818l-.544-.246-.594 3.47c.99.434 2.814.81 4.708.827 4.44 0 7.324-2.078 7.357-5.296.02-1.765-1.103-3.107-3.54-4.213zM48.765.283H45.5c-1.012 0-1.77.277-2.213 1.286l-6.273 14.2h4.437l.89-2.33 5.42.003c.127.543.516 2.323.516 2.323h3.92L48.766.282zm-5.21 9.99c.35-.893 1.684-4.33 1.684-4.33-.03.04.34-.898.56-1.48l.28 1.337.98 4.473h-3.51zM14.84.28l-4.136 10.57-.44-2.146L8.782 1.58C8.526.6 7.784.306 6.867.27H.054L0 .595c1.657.4 3.14.98 4.438 1.7l3.756 13.463 4.47-.005L19.316.28H14.84z" fill="#5A5A5A"/></symbol><symbol id="yandex-money" viewBox="0 0 110.023 28"><g fill="#5A5A5A"><path d="M62.705 9.336H57.45v1.494c0 1.813-.054 3.107-.308 4.228a9.932 9.932 0 0 1-.987 2.508H55.14v3.175h1.202v-2.06h6.282v2.07h1.2v-3.18h-1.12V9.34zm-1.28 8.23H57.41c.427-.774.692-1.48.88-2.31.214-.894.388-2.146.388-4.507v-.31h2.747v7.12zm8.09-4.602c-.52-.494-1.16-.667-1.84-.667-.868 0-1.522.294-2.016.827-.61.653-.9 1.626-.9 2.48 0 .947.342 1.814.89 2.39.692.718 1.48.825 2.227.825 1.23 0 1.934-.42 2.43-.99l-.748-.66a2.42 2.42 0 0 1-1.734.68c-.386 0-.84-.08-1.227-.467-.375-.39-.6-1.027-.613-1.615h4.48c.015-.856-.185-2.083-.96-2.816zm-3.468 1.853c.065-.467.307-.92.586-1.187.307-.293.64-.373 1.027-.373.347 0 .72.065 1.04.4.267.28.453.76.493 1.16h-3.146zm10.177.013H73.25v-2.387h-1.11v6.23h1.107v-2.88h2.974v2.88h1.11v-6.23h-1.11zm5.414-.266h-1.12v-2.12H79.41v6.228h2.055c.826 0 1.64-.08 2.174-.588.25-.24.56-.68.56-1.453 0-.4-.08-1-.58-1.46-.458-.424-1.12-.6-1.99-.6zm.973 2.88c-.3.24-.8.268-1.06.268h-1.03v-2.188h.99c.308 0 .827.027 1.135.268.16.133.36.387.36.812 0 .455-.214.708-.39.84zm3.09 1.228h1.11v-5.24h2.88v-.99H85.7zm9.47-5.602l-2.96 3.602v-4.23H91.1v6.23h1.1v-.64l2.962-3.6v4.24h1.107v-6.23h-1.11zM6.488 6.45H4.36C2.275 6.45.505 8.037.505 11.123c0 1.85.857 3.215 2.386 3.89L.04 20.17c-.096.168 0 .3.146.3H1.51c.11 0 .186-.038.223-.132l2.592-5.066h.932v5.066c0 .058.056.132.13.132h1.156c.11 0 .148-.056.148-.15V6.638c0-.132-.07-.188-.2-.188zm-1.23 7.627h-.785c-1.23 0-2.423-.896-2.423-3.14 0-2.34 1.12-3.292 2.254-3.292h.95v6.432zm8.234-2.98h-1.154c-.093 0-.15.075-.15.13v3.57h-2.143v-3.57c0-.092-.037-.13-.13-.13H8.757c-.093 0-.148.057-.148.13v9.09c0 .094.03.146.13.146h1.17c.07 0 .13-.055.13-.147v-4.338h2.14v4.338c0 .095.055.147.15.147h1.152c.094 0 .13-.073.13-.147v-9.088a.128.128 0 0 0-.13-.13zm26.237 8.133c-.018-.056-.037-.073-.092-.073-.094 0-.597.204-1.324.204-1.416 0-2.104-1.36-2.104-3.53 0-1.91.578-3.79 1.547-3.79.26 0 .578.077 1.08.545.057.056.094.074.15.074.056 0 .11-.038.167-.13l.51-.823a.31.31 0 0 0 .06-.17c0-.072-.074-.13-.188-.184-.764-.39-1.286-.466-1.732-.466-1.752 0-3.112 2.094-3.112 5.365 0 2.823 1.306 4.45 3.17 4.45.783 0 1.62-.373 1.957-.617a.188.188 0 0 0 .074-.202l-.15-.636zm-7.952-3.907l2.236-4.095c.04-.057.02-.13-.055-.13h-1.1c-.317 0-.43.11-.54.354l-1.68 3.496c-.092.206-.186.336-.28.393v-4.11c0-.07-.037-.13-.11-.13h-1.212c-.056 0-.112.06-.112.13v9.11c0 .06.04.13.113.13h1.212c.073 0 .11-.054.11-.13v-4.7a.393.393 0 0 1 .13.17l2.126 4.376c.113.226.28.28.523.28h1.193c.073 0 .093-.074.055-.13l-2.605-5.01zm-10.68 3.965h-.223c-.28 0-.354-.113-.354-.338v-7.722c0-.094-.04-.13-.12-.13h-3.73c-.09 0-.148.055-.148.13v.673c0 2.27-.13 5.18-1.323 7.39h-.41c-.113 0-.15.06-.15.15v2.73c0 .098.075.13.13.13h.896c.205 0 .28-.15.28-.28v-1.55h3.987v1.7a.13.13 0 0 0 .13.136h.95c.113 0 .225-.095.225-.28v-2.58c0-.095-.058-.15-.15-.15zm-2.013 0H16.38c.95-1.627 1.323-3.46 1.454-5.704.038-.485.057-.99.057-1.31h1.2v7.014zm5.817-8.415c-2.015 0-2.91 2.543-2.91 5.31 0 2.823 1.268 4.506 3.13 4.506a4.16 4.16 0 0 0 2.127-.62c.074-.04.093-.1.074-.17l-.147-.64c-.02-.075-.056-.11-.15-.11-.072 0-.613.203-1.378.203-1.435 0-2.105-1.25-2.105-2.896v-.443s.73.09 1.16.09h2.726v-.786c-.003-2.9-1.03-4.453-2.52-4.453zm-.208 4.058c-.43 0-1.1.08-1.1.08s0-.28.04-.58c.166-1.59.558-2.39 1.21-2.39.597 0 .97.823 1.062 2.264.02.3.02.636.02.636h-1.232z"/><path d="M101.94 0H46.575v28h55.366l8.09-14-8.08-14zm-1.65 25.644H49.207V2.364h51.086L107.033 14l-6.74 11.644z"/></g></symbol></svg>