<?xml version="1.0" encoding="utf-8"?>
<!-- Generator: Adobe Illustrator 16.0.0, SVG Export Plug-In . SVG Version: 6.00 Build 0)  -->
<!DOCTYPE svg PUBLIC "-//W3C//DTD SVG 1.1//EN" "http://www.w3.org/Graphics/SVG/1.1/DTD/svg11.dtd">
<svg version="1.1" id="Layer_1" xmlns="http://www.w3.org/2000/svg" xmlns:xlink="http://www.w3.org/1999/xlink" x="0px" y="0px"
	 width="103px" height="67.996px" viewBox="12.075 5.412 103 67.996" enable-background="new 12.075 5.412 103 67.996"
	 xml:space="preserve">
<g>
	<path fill-rule="evenodd" clip-rule="evenodd" fill="#34B0B6" d="M15.075,5.412h97c1.657,0,3,1.343,3,3v57c0,1.657-1.343,3-3,3h-97
		c-1.657,0-3-1.343-3-3v-57C12.075,6.755,13.418,5.412,15.075,5.412z"/>
	<path fill="#34B0B6" d="M64.078,73.408l-10.007-6.995h20.014L64.078,73.408z"/>
</g>
<g>
	<path fill="#FFFFFF" d="M79.039,36.43v2.635c13.736,5.387,17.431,5.533,16.698,9.019c-0.041,0.188-0.206,0.323-0.396,0.323H76.234
		h-2.585c-0.862,0-1.54,0-2.592,0c-0.159,0-0.326,0-0.505,0c-2.328,0-3.509-1.206-3.716-2.499c-0.138-0.949-0.148-4.283-0.001-5.455
		c0-0.005,0.001-0.012,0.001-0.019c0.231-1.33,1.549-2.634,3.712-2.59c0.004,0,0.007,0,0.007,0h3.002v2.455h0.092h2.647V37.97
		l0.004,0.001c0,0.001,0,0.001,0,0.001l0.001-2.236c-1.259,0-2.971,0-3.097,0c0,0-0.01,0-0.014,0
		c-0.109,0.005-1.492,0.054-2.807,0.119c-1.229,0.062-2.412,0.266-2.64,0.307c-0.021,0.004-0.044,0.01-0.065,0.019
		c-0.98,0.352-1.865,0.97-2.623,2.05c-0.41,0.551-0.672,1.129-0.782,1.734c0,0.006-0.002,0.012-0.002,0.018
		c-0.123,0.896-0.351,5.891,0.35,7.31c0.002,0.006,0.005,0.011,0.007,0.016c0.596,1.088,1.35,1.859,2.562,2.478
		c1.665,0.918,2.944,0.729,9.043,0.729v-0.001h0.002c19.172,0,20.123,1.041,21.811-3.113c0.019-0.05,0.028-0.101,0.028-0.154
		C98.075,43.251,97.973,43.973,79.039,36.43z"/>
	<path fill="#FFFFFF" d="M62.874,39.964c-0.107-0.605-0.37-1.184-0.781-1.734c-0.755-1.08-1.639-1.698-2.622-2.05
		c-0.021-0.009-0.045-0.015-0.065-0.019c-0.228-0.041-1.409-0.244-2.639-0.307c-1.316-0.065-2.695-0.114-2.807-0.119
		c-0.007,0-0.011,0-0.017,0c-0.158,0-2.95,0-4.019,0c-0.051,0-0.104,0.01-0.152,0.029v2.64v7.458l2.74,0.137v-8.117l0.987-0.038
		h3.092H56.6c2.164-0.044,3.482,1.26,3.713,2.59c0,0.007,0.001,0.014,0.001,0.019c0.147,1.172,0.14,4.506-0.001,5.455
		c-0.208,1.293-1.389,2.499-3.717,2.499c-0.179,0-0.345,0-0.505,0c-1.052,0-1.729,0-2.592,0h-2.586H31.81
		c-0.192,0-0.357-0.135-0.397-0.323c-0.714-3.394,2.772-3.624,15.623-8.603v-2.622c-17.865,7.089-17.961,6.473-17.961,10.386
		c0,0.054,0.01,0.104,0.029,0.154c1.688,4.154,2.637,3.113,21.81,3.113v0.001c6.1,0,7.381,0.189,9.046-0.729
		c1.212-0.618,1.966-1.39,2.562-2.478c0.003-0.005,0.006-0.01,0.008-0.016c0.699-1.419,0.473-6.414,0.35-7.31
		C62.877,39.976,62.877,39.97,62.874,39.964z"/>
	<path fill="#FFFFFF" d="M61.957,33.985c0.44,0.102,0.496,0.222,0.473,0.612c-0.021,0.355-0.018,0.713-0.015,1.069
		c0.005,0.37,0.01,0.755-0.018,1.132c-0.011,0.099,0.022,0.196,0.088,0.269c0.066,0.073,0.16,0.116,0.262,0.116h1.755
		c0.095,0,0.187-0.039,0.256-0.107c0.067-0.068,0.104-0.164,0.104-0.26c-0.012-0.703-0.008-1.406-0.002-2.112
		c0.002-0.391,0.006-0.781,0.006-1.174c-0.003-1.424-0.272-1.722-1.709-1.877c-1.859-0.204-3.392-1.238-4.207-2.842
		c-0.813-1.608-0.742-3.467,0.199-5.097c0.913-1.583,2.597-2.527,4.507-2.527c1.598,0,3.068,0.688,4.034,1.888
		c0.706,0.879,1.095,1.91,1.229,3.237h2.496c0.001-0.061,0.005-0.12,0.001-0.185c-0.261-3.491-2.343-6.148-5.574-7.107
		c-2.956-0.878-5.642-0.178-7.751,2.021c-2.308,2.404-2.854,5.31-1.578,8.402C57.504,31.845,59.334,33.372,61.957,33.985z"/>
</g>
</svg>
